<?xml version="1.0" encoding="UTF-8"?><!DOCTYPE svg PUBLIC "-//W3C//DTD SVG 1.1//EN" "http://www.w3.org/Graphics/SVG/1.1/DTD/svg11.dtd"><svg xmlns="http://www.w3.org/2000/svg" xmlns:xlink="http://www.w3.org/1999/xlink"><defs>
        <clipPath id="clip0_2621_25829">
            <rect width="16" height="16" fill="white"/>
        </clipPath>
    
        <clipPath id="clip0_1690_35559">
            <rect width="90" height="90" fill="white"/>
        </clipPath>
    </defs><symbol id="add" viewBox="0 0 24 24"><line x1="12" y1="5" x2="12" y2="19"/><line x1="5" y1="12" x2="19" y2="12"/></symbol><symbol id="arrowForward" viewBox="0 0 24 24">
    <path d="M11.1161 6.88388C10.628 6.39573 10.628 5.60427 11.1161 5.11612C11.6043 4.62796 12.3957 4.62796 12.8839 5.11612L11.1161 6.88388ZM18 12L18.8839 11.1161C19.1183 11.3505 19.25 11.6685 19.25 12C19.25 12.3315 19.1183 12.6495 18.8839 12.8839L18 12ZM12.8839 18.8839C12.3957 19.372 11.6043 19.372 11.1161 18.8839C10.628 18.3957 10.628 17.6043 11.1161 17.1161L12.8839 18.8839ZM12.8839 5.11612L18.8839 11.1161L17.1161 12.8839L11.1161 6.88388L12.8839 5.11612ZM18.8839 12.8839L12.8839 18.8839L11.1161 17.1161L17.1161 11.1161L18.8839 12.8839Z" fill="currentColor"/>
    <path d="M6 12L17 12" stroke="currentColor" stroke-width="2.5" stroke-linecap="round" stroke-linejoin="round"/>
</symbol><symbol id="check" viewBox="0 0 40 40">
    <circle opacity="0.16" cx="20" cy="20" r="20" fill="currentColor"/>
    <circle cx="20" cy="20.4443" r="10" fill="white"/>
    <path d="M20 10.4443C18.0222 10.4443 16.0888 11.0308 14.4443 12.1296C12.7998 13.2285 11.5181 14.7902 10.7612 16.6175C10.0043 18.4448 9.8063 20.4554 10.1922 22.3952C10.578 24.335 11.5304 26.1169 12.9289 27.5154C14.3275 28.9139 16.1093 29.8663 18.0491 30.2522C19.9889 30.638 21.9996 30.44 23.8268 29.6831C25.6541 28.9263 27.2159 27.6445 28.3147 26C29.4135 24.3555 30 22.4221 30 20.4443C30 19.1311 29.7413 17.8308 29.2388 16.6175C28.7363 15.4042 27.9997 14.3019 27.0711 13.3733C26.1425 12.4447 25.0401 11.7081 23.8268 11.2055C22.6136 10.703 21.3132 10.4443 20 10.4443ZM24.3 18.0543L19.73 24.0543C19.6368 24.1754 19.5172 24.2734 19.3803 24.341C19.2433 24.4086 19.0927 24.444 18.94 24.4443C18.7881 24.4452 18.638 24.4114 18.5011 24.3455C18.3643 24.2797 18.2442 24.1835 18.15 24.0643L15.71 20.9543C15.6292 20.8506 15.5697 20.732 15.5348 20.6052C15.4999 20.4784 15.4903 20.3461 15.5065 20.2156C15.5228 20.0851 15.5646 19.9591 15.6295 19.8448C15.6944 19.7305 15.7813 19.6301 15.885 19.5493C16.0945 19.3862 16.3603 19.313 16.6237 19.3459C16.7542 19.3621 16.8802 19.4039 16.9945 19.4688C17.1088 19.5338 17.2092 19.6206 17.29 19.7243L18.92 21.8043L22.7 16.8043C22.7801 16.6993 22.8801 16.611 22.9943 16.5446C23.1086 16.4782 23.2347 16.435 23.3657 16.4173C23.4966 16.3997 23.6297 16.408 23.7574 16.4418C23.8851 16.4756 24.0049 16.5342 24.11 16.6143C24.2151 16.6944 24.3033 16.7945 24.3697 16.9087C24.4361 17.0229 24.4794 17.1491 24.497 17.28C24.5147 17.4109 24.5063 17.544 24.4725 17.6718C24.4387 17.7995 24.3801 17.9193 24.3 18.0243V18.0543Z" fill="currentColor"/>
</symbol><symbol id="close" viewBox="0 0 24 24">
    <path d="M12 22C17.5 22 22 17.5 22 12C22 6.5 17.5 2 12 2C6.5 2 2 6.5 2 12C2 17.5 6.5 22 12 22Z" stroke="currentColor" fill-opacity="0" stroke-width="1.5" stroke-linecap="round" stroke-linejoin="round"/>
    <path d="M9.16998 14.83L14.83 9.17004" stroke="currentColor" fill-opacity="0" stroke-width="1.5" stroke-linecap="round" stroke-linejoin="round"/>
    <path d="M14.83 14.83L9.16998 9.17004" stroke="currentColor" fill-opacity="0" stroke-width="1.5" stroke-linecap="round" stroke-linejoin="round"/>
</symbol><symbol id="closed" viewBox="0 0 20 20">
    <path d="M6.27991 5.21985C6.13773 5.08737 5.94969 5.01524 5.75539 5.01867C5.56109 5.0221 5.3757 5.10081 5.23829 5.23822C5.10087 5.37564 5.02216 5.56102 5.01873 5.75532C5.01531 5.94963 5.08743 6.13767 5.21991 6.27985L8.93991 9.99985L5.21991 13.7198C5.14622 13.7885 5.08712 13.8713 5.04613 13.9633C5.00514 14.0553 4.98309 14.1546 4.98132 14.2553C4.97954 14.356 4.99807 14.4561 5.03579 14.5494C5.07351 14.6428 5.12965 14.7277 5.20087 14.7989C5.27209 14.8701 5.35692 14.9262 5.45031 14.964C5.5437 15.0017 5.64373 15.0202 5.74443 15.0184C5.84513 15.0167 5.94445 14.9946 6.03645 14.9536C6.12845 14.9126 6.21125 14.8535 6.27991 14.7798L9.99991 11.0598L13.7199 14.7798C13.7886 14.8535 13.8714 14.9126 13.9634 14.9536C14.0554 14.9946 14.1547 15.0167 14.2554 15.0184C14.3561 15.0202 14.4561 15.0017 14.5495 14.964C14.6429 14.9262 14.7277 14.8701 14.7989 14.7989C14.8702 14.7277 14.9263 14.6428 14.964 14.5494C15.0018 14.4561 15.0203 14.356 15.0185 14.2553C15.0167 14.1546 14.9947 14.0553 14.9537 13.9633C14.9127 13.8713 14.8536 13.7885 14.7799 13.7198L11.0599 9.99985L14.7799 6.27985C14.9124 6.13767 14.9845 5.94963 14.9811 5.75532C14.9777 5.56102 14.8989 5.37564 14.7615 5.23822C14.6241 5.10081 14.4387 5.0221 14.2444 5.01867C14.0501 5.01524 13.8621 5.08737 13.7199 5.21985L9.99991 8.93985L6.27991 5.21985Z" fill="currentColor"/>
</symbol><symbol id="destination_point" viewBox="0 0 13 16">
<path d="M6.28283 15.9985C6.27223 15.9985 6.26163 15.9985 6.25102 15.9985C6.22849 15.9282 6.16355 15.8964 6.11451 15.85C4.99456 14.8083 3.94884 13.695 2.99456 12.4995C2.07475 11.3504 1.24638 10.1416 0.651288 8.78574C0.15427 7.65386 -0.0710451 6.4862 0.134389 5.24962C0.630082 2.25559 3.2318 0.0501535 6.28416 0.0488281C6.28416 0.834779 6.28416 1.62073 6.28416 2.40668C6.09993 2.41463 5.9157 2.41861 5.73147 2.44379C3.19337 2.78839 1.67051 5.52795 2.75599 7.85532C3.44652 9.33445 4.65129 10.0833 6.28416 10.135C6.28416 12.0806 6.28416 14.025 6.28416 15.9706C6.28151 15.9799 6.28151 15.9892 6.28283 15.9985Z" fill="#4848ED"/>
<path d="M6.28442 2.40493C6.28442 1.61898 6.28442 0.833033 6.28442 0.0470818C7.11676 0.0404549 7.92127 0.192874 8.67939 0.532171C10.7443 1.45596 11.9942 3.03184 12.4103 5.26378C12.4448 5.44668 12.4329 5.63621 12.4991 5.81249C12.4991 5.88671 12.4991 5.96093 12.4991 6.03515C12.4461 6.1836 12.4474 6.33071 12.4991 6.47916C12.4991 6.54277 12.4991 6.60639 12.4991 6.67001C12.466 6.67929 12.4687 6.70712 12.4673 6.73363C12.4501 6.96557 12.4064 7.19221 12.3533 7.41753C12.0989 8.51229 11.6032 9.50103 11.016 10.4473C10.0061 12.0749 8.76686 13.5196 7.43088 14.8821C7.06242 15.2585 6.69397 15.6375 6.28442 15.9702C6.28442 14.0246 6.28442 12.0802 6.28442 10.1346C6.50046 10.1253 6.71517 10.108 6.92856 10.0709C8.967 9.71839 10.3626 7.83237 10.0936 5.77936C9.9385 4.59579 9.34738 3.67863 8.35732 3.02256C7.73174 2.60772 7.03326 2.41819 6.28442 2.40493Z" fill="#4848ED"/>
<path d="M12.499 6.48014C12.4473 6.33169 12.446 6.18458 12.499 6.03613C12.499 6.18325 12.499 6.33169 12.499 6.48014Z" fill="#47484F"/>
</symbol><symbol id="down" viewBox="0 0 24 24">
    <path fill-rule="evenodd" clip-rule="evenodd" d="M6.46967 8.96967C6.76256 8.67678 7.23744 8.67678 7.53033 8.96967L12 13.4393L16.4697 8.96967C16.7626 8.67678 17.2374 8.67678 17.5303 8.96967C17.8232 9.26256 17.8232 9.73744 17.5303 10.0303L12.5303 15.0303C12.3897 15.171 12.1989 15.25 12 15.25C11.8011 15.25 11.6103 15.171 11.4697 15.0303L6.46967 10.0303C6.17678 9.73744 6.17678 9.26256 6.46967 8.96967Z" fill="currentColor" stroke="currentColor" stroke-linecap="round" stroke-linejoin="round"/>
</symbol><symbol id="download" viewBox="0 0 24 24"><path d="M3 15v4c0 1.1.9 2 2 2h14a2 2 0 0 0 2-2v-4M17 9l-5 5-5-5M12 12.8V2.5"/></symbol><symbol id="eye" viewBox="0 0 24 24">
    <path fill-rule="evenodd" clip-rule="evenodd" d="M3.93799 8.5797C7.55608 2.47343 16.4439 2.47343 20.062 8.5797C21.3127 10.6905 21.3127 13.3095 20.062 15.4203C16.4439 21.5266 7.55608 21.5266 3.93799 15.4203C2.68734 13.3095 2.68734 10.6905 3.93799 8.5797ZM9.36532 12.0548C9.36532 10.5934 10.5446 9.41018 11.9995 9.41018C13.4547 9.41018 14.6347 10.5937 14.6347 12.0548C14.6347 13.5148 13.4548 14.6984 11.9995 14.6984C10.5444 14.6984 9.36532 13.5151 9.36532 12.0548ZM11.9995 8.17147C9.86264 8.17147 8.13103 9.90954 8.13103 12.0548C8.13103 14.1992 9.86276 15.9371 11.9995 15.9371C14.136 15.9371 15.869 14.1995 15.869 12.0548C15.869 9.90928 14.1361 8.17147 11.9995 8.17147Z" fill="#6E717C"/>
</symbol><symbol id="greater" viewBox="0 0 24 24"><path d="M9 18l6-6-6-6"/></symbol><symbol id="info" viewBox="0 0 40 40">
    <circle opacity="0.16" cx="20" cy="20" r="20" fill="currentColor"/>
    <path d="M20 10C25.523 10 30 14.478 30 20C30 25.522 25.523 30 20 30C14.477 30 10 25.522 10 20C10 14.478 14.477 10 20 10ZM20.002 23.004C19.8682 22.9998 19.7349 23.0225 19.6101 23.0707C19.4853 23.119 19.3714 23.1919 19.2753 23.285C19.1791 23.3782 19.1027 23.4897 19.0505 23.6129C18.9983 23.7362 18.9714 23.8686 18.9714 24.0025C18.9714 24.1364 18.9983 24.2688 19.0505 24.3921C19.1027 24.5153 19.1791 24.6268 19.2753 24.72C19.3714 24.8131 19.4853 24.886 19.6101 24.9343C19.7349 24.9825 19.8682 25.0052 20.002 25.001C20.2613 24.9928 20.5073 24.884 20.6879 24.6976C20.8684 24.5113 20.9694 24.262 20.9694 24.0025C20.9694 23.743 20.8684 23.4937 20.6879 23.3074C20.5073 23.121 20.2613 23.0122 20.002 23.004ZM20 15C19.7549 15.0001 19.5184 15.0901 19.3353 15.2531C19.1523 15.4161 19.0354 15.6406 19.007 15.884L19 16L19.002 21.001L19.009 21.118C19.0379 21.361 19.155 21.5851 19.338 21.7476C19.521 21.9101 19.7572 21.9999 20.002 21.9999C20.2468 21.9999 20.483 21.9101 20.666 21.7476C20.849 21.5851 20.9661 21.361 20.995 21.118L21.002 21.001L21 16L20.993 15.883C20.9643 15.6397 20.8474 15.4155 20.6644 15.2527C20.4813 15.09 20.2449 15 20 15Z" fill="currentColor"/>
</symbol><symbol id="info_2" viewBox="0 0 16 16">
    <g clip-path="url(#clip0_2621_25829)">
        <path d="M7.99967 0.708984C3.97905 0.708984 0.708008 3.98003 0.708008 8.00065C0.708008 12.0213 3.97905 15.2923 7.99967 15.2923C12.0203 15.2923 15.2913 12.0213 15.2913 8.00065C15.2913 3.98003 12.0203 0.708984 7.99967 0.708984ZM7.99967 3.69857C8.18715 3.69857 8.37042 3.75416 8.52631 3.85832C8.68219 3.96248 8.80369 4.11052 8.87543 4.28373C8.94718 4.45694 8.96595 4.64754 8.92938 4.83141C8.8928 5.01529 8.80252 5.18419 8.66995 5.31676C8.53738 5.44933 8.36848 5.53961 8.1846 5.57619C8.00073 5.61276 7.81013 5.59399 7.63692 5.52225C7.46371 5.4505 7.31567 5.329 7.21151 5.17312C7.10735 5.01723 7.05176 4.83396 7.05176 4.64648C7.05176 4.39508 7.15163 4.15397 7.3294 3.97621C7.50716 3.79844 7.74827 3.69857 7.99967 3.69857ZM10.333 11.9382H5.95801V10.7715H7.56217V7.56315H6.39551V6.39648H8.72884V10.7715H10.333V11.9382Z" fill="#575A65"/>
    </g>
    
</symbol><symbol id="invoice" viewBox="0 0 20 20">
    <path d="M13.1501 1.6665H6.85008C3.70008 1.6665 2.91675 2.50817 2.91675 5.8665V15.2498C2.91675 17.4665 4.13341 17.9915 5.60842 16.4082L5.61675 16.3998C6.30008 15.6748 7.34175 15.7332 7.93342 16.5248L8.77508 17.6498C9.45008 18.5415 10.5417 18.5415 11.2167 17.6498L12.0584 16.5248C12.6584 15.7248 13.7001 15.6665 14.3834 16.3998C15.8667 17.9832 17.0751 17.4582 17.0751 15.2415V5.8665C17.0834 2.50817 16.3001 1.6665 13.1501 1.6665ZM12.2917 8.95817H7.70842C7.36675 8.95817 7.08342 8.67484 7.08342 8.33317C7.08342 7.9915 7.36675 7.70817 7.70842 7.70817H12.2917C12.6334 7.70817 12.9167 7.9915 12.9167 8.33317C12.9167 8.67484 12.6334 8.95817 12.2917 8.95817Z" fill="currentColor"/>
</symbol><symbol id="location" viewBox="0 0 24 24"><circle cx="12" cy="10" r="3"/><path d="M12 21.7C17.3 17 20 13 20 10a8 8 0 1 0-16 0c0 3 2.7 6.9 8 11.7z"/></symbol><symbol id="next" viewBox="0 0 24 24"><path d="M5 12h13M12 5l7 7-7 7"/></symbol><symbol id="open-eye" viewBox="0 0 24 24"><path d="M1 12s4-8 11-8 11 8 11 8-4 8-11 8-11-8-11-8z"/><circle cx="12" cy="12" r="3"/></symbol><symbol id="pdf_download" viewBox="0 0 43 44">
<circle cx="21.4883" cy="22.1074" r="16" fill="#F4F5F4"/>
<path fill-rule="evenodd" clip-rule="evenodd" d="M27.4883 18.9646V27.1074C27.4883 27.5621 27.3077 27.9981 26.9862 28.3196C26.6647 28.6411 26.2287 28.8217 25.774 28.8217H24.9169V27.9646H25.774C26.0013 27.9646 26.2193 27.8743 26.3801 27.7135C26.5408 27.5528 26.6311 27.3347 26.6311 27.1074V18.9646H24.9169C24.5759 18.9646 24.2488 18.8291 24.0077 18.588C23.7666 18.3469 23.6311 18.0198 23.6311 17.6789V15.9646H18.9169C18.6895 15.9646 18.4715 16.0549 18.3108 16.2156C18.15 16.3764 18.0597 16.5944 18.0597 16.8217V24.536H17.2026V16.8217C17.2026 16.3671 17.3832 15.931 17.7047 15.6095C18.0262 15.288 18.4622 15.1074 18.9169 15.1074H23.6311L27.4883 18.9646ZM16.8597 25.2646H15.4883V28.6923H16.1663V27.542H16.8546C17.1006 27.542 17.3097 27.4931 17.482 27.3937C17.656 27.2934 17.7889 27.158 17.8789 26.9874C17.9723 26.8084 18.0197 26.609 18.0169 26.4071C18.0169 26.1928 17.9714 25.9991 17.8814 25.8268C17.7919 25.6556 17.655 25.5137 17.4871 25.418C17.3157 25.3151 17.1074 25.2646 16.8597 25.2646ZM17.3269 26.4071C17.3299 26.5201 17.3049 26.632 17.254 26.7328C17.2083 26.8207 17.1372 26.8927 17.05 26.9394C16.9502 26.9888 16.8398 27.0129 16.7286 27.0097H16.1637V25.8046H16.7294C16.9163 25.8046 17.0629 25.856 17.1683 25.9597C17.2737 26.0643 17.3269 26.2134 17.3269 26.4071ZM18.37 25.2646V28.6923H19.6214C19.9651 28.6923 20.2506 28.6237 20.4769 28.4891C20.7058 28.3521 20.8847 28.1451 20.9869 27.8986C21.0983 27.6414 21.1549 27.3311 21.1549 26.9694C21.1549 26.6094 21.0991 26.3026 20.9869 26.048C20.8859 25.8043 20.7088 25.5999 20.482 25.4651C20.2557 25.3314 19.9686 25.2646 19.6206 25.2646H18.37ZM19.048 25.8174H19.5306C19.7431 25.8174 19.9163 25.8603 20.0526 25.9477C20.194 26.0402 20.3008 26.1771 20.356 26.3368C20.4237 26.5091 20.4571 26.7243 20.4571 26.9823C20.4598 27.1532 20.4402 27.3238 20.3989 27.4897C20.3683 27.6205 20.3111 27.7437 20.2309 27.8514C20.1563 27.9475 20.0575 28.0221 19.9446 28.0674C19.8123 28.1169 19.6718 28.1408 19.5306 28.1377H19.048V25.8174ZM22.2563 27.3286V28.6923H21.5791V25.2646H23.7631V25.8243H22.2563V26.7817H23.6329V27.3286H22.2563Z" fill="#09090F"/>
</symbol><symbol id="source_point" viewBox="0 0 14 14">
<circle cx="7" cy="7" r="7" fill="#0DAC5C"/>
<circle cx="7" cy="7" r="3" fill="white"/>
</symbol><symbol id="v-dot" viewBox="0 0 24 24">
    <path d="M12 13C12.5523 13 13 12.5523 13 12C13 11.4477 12.5523 11 12 11C11.4477 11 11 11.4477 11 12C11 12.5523 11.4477 13 12 13Z" stroke="currentColor" stroke-width="2" stroke-linecap="round" stroke-linejoin="round"/>
    <path d="M12 6C12.5523 6 13 5.55228 13 5C13 4.44772 12.5523 4 12 4C11.4477 4 11 4.44772 11 5C11 5.55228 11.4477 6 12 6Z" stroke="currentColor" stroke-width="2" stroke-linecap="round" stroke-linejoin="round"/>
    <path d="M12 20C12.5523 20 13 19.5523 13 19C13 18.4477 12.5523 18 12 18C11.4477 18 11 18.4477 11 19C11 19.5523 11.4477 20 12 20Z" stroke="currentColor" stroke-width="2" stroke-linecap="round" stroke-linejoin="round"/>
</symbol><symbol id="warning" viewBox="0 0 90 90">
    <g clip-path="url(#clip0_1690_35559)">
        <path d="M55.7851 10.0219C54.7013 8.11727 53.1325 6.53361 51.2381 5.43197C49.3438 4.33033 47.1915 3.75 45.0001 3.75C42.8087 3.75 40.6564 4.33033 38.762 5.43197C36.8677 6.53361 35.2988 8.11727 34.2151 10.0219L1.55258 68.2144C0.515392 70.0406 -0.0208017 72.1084 -0.0017044 74.2084C0.017393 76.3085 0.591103 78.3662 1.66133 80.1732C2.74727 82.0374 4.30667 83.5815 6.18155 84.649C8.05643 85.7165 10.1802 86.2695 12.3376 86.2519H77.6626C79.82 86.2695 81.9437 85.7165 83.8186 84.649C85.6935 83.5815 87.2529 82.0374 88.3388 80.1732C89.409 78.3662 89.9828 76.3085 90.0019 74.2084C90.021 72.1084 89.4848 70.0406 88.4476 68.2144L55.7851 10.0219ZM45.0001 71.2519C44.2584 71.2519 43.5334 71.032 42.9167 70.6199C42.3 70.2079 41.8194 69.6222 41.5355 68.937C41.2517 68.2517 41.1774 67.4977 41.3221 66.7703C41.4668 66.0429 41.824 65.3747 42.3484 64.8503C42.8729 64.3258 43.5411 63.9687 44.2685 63.824C44.9959 63.6793 45.7499 63.7535 46.4351 64.0374C47.1204 64.3212 47.706 64.8018 48.1181 65.4185C48.5301 66.0352 48.7501 66.7602 48.7501 67.5019C48.7501 68.4965 48.355 69.4503 47.6517 70.1536C46.9485 70.8568 45.9946 71.2519 45.0001 71.2519ZM48.7501 52.5019C48.7501 53.4965 48.355 54.4503 47.6517 55.1536C46.9485 55.8568 45.9946 56.2519 45.0001 56.2519C44.0055 56.2519 43.0517 55.8568 42.3484 55.1536C41.6452 54.4503 41.2501 53.4965 41.2501 52.5019V30.0019C41.2501 29.0073 41.6452 28.0535 42.3484 27.3503C43.0517 26.647 44.0055 26.2519 45.0001 26.2519C45.9946 26.2519 46.9485 26.647 47.6517 27.3503C48.355 28.0535 48.7501 29.0073 48.7501 30.0019V52.5019Z" fill="#E13D45"/>
    </g>
    
</symbol></svg>