<?xml version="1.0" encoding="UTF-8"?><!DOCTYPE svg PUBLIC "-//W3C//DTD SVG 1.1//EN" "http://www.w3.org/Graphics/SVG/1.1/DTD/svg11.dtd"><svg xmlns="http://www.w3.org/2000/svg" xmlns:xlink="http://www.w3.org/1999/xlink"><defs>
        <clipPath id="clip0_2621_25829">
            <rect width="16" height="16" fill="white"/>
        </clipPath>
    
        <clipPath id="clip0_1690_35559">
            <rect width="90" height="90" fill="white"/>
        </clipPath>
    </defs><symbol id="add" viewBox="0 0 24 24"><line x1="12" y1="5" x2="12" y2="19"/><line x1="5" y1="12" x2="19" y2="12"/></symbol><symbol id="arrowForward" viewBox="0 0 24 24">
    <path d="M11.1161 6.88388C10.628 6.39573 10.628 5.60427 11.1161 5.11612C11.6043 4.62796 12.3957 4.62796 12.8839 5.11612L11.1161 6.88388ZM18 12L18.8839 11.1161C19.1183 11.3505 19.25 11.6685 19.25 12C19.25 12.3315 19.1183 12.6495 18.8839 12.8839L18 12ZM12.8839 18.8839C12.3957 19.372 11.6043 19.372 11.1161 18.8839C10.628 18.3957 10.628 17.6043 11.1161 17.1161L12.8839 18.8839ZM12.8839 5.11612L18.8839 11.1161L17.1161 12.8839L11.1161 6.88388L12.8839 5.11612ZM18.8839 12.8839L12.8839 18.8839L11.1161 17.1161L17.1161 11.1161L18.8839 12.8839Z" fill="currentColor"/>
    <path d="M6 12L17 12" stroke="currentColor" stroke-width="2.5" stroke-linecap="round" stroke-linejoin="round"/>
</symbol><symbol id="check" viewBox="0 0 40 40">
    <circle opacity="0.16" cx="20" cy="20" r="20" fill="currentColor"/>
    <circle cx="20" cy="20.4443" r="10" fill="white"/>
    <path d="M20 10.4443C18.0222 10.4443 16.0888 11.0308 14.4443 12.1296C12.7998 13.2285 11.5181 14.7902 10.7612 16.6175C10.0043 18.4448 9.8063 20.4554 10.1922 22.3952C10.578 24.335 11.5304 26.1169 12.9289 27.5154C14.3275 28.9139 16.1093 29.8663 18.0491 30.2522C19.9889 30.638 21.9996 30.44 23.8268 29.6831C25.6541 28.9263 27.2159 27.6445 28.3147 26C29.4135 24.3555 30 22.4221 30 20.4443C30 19.1311 29.7413 17.8308 29.2388 16.6175C28.7363 15.4042 27.9997 14.3019 27.0711 13.3733C26.1425 12.4447 25.0401 11.7081 23.8268 11.2055C22.6136 10.703 21.3132 10.4443 20 10.4443ZM24.3 18.0543L19.73 24.0543C19.6368 24.1754 19.5172 24.2734 19.3803 24.341C19.2433 24.4086 19.0927 24.444 18.94 24.4443C18.7881 24.4452 18.638 24.4114 18.5011 24.3455C18.3643 24.2797 18.2442 24.1835 18.15 24.0643L15.71 20.9543C15.6292 20.8506 15.5697 20.732 15.5348 20.6052C15.4999 20.4784 15.4903 20.3461 15.5065 20.2156C15.5228 20.0851 15.5646 19.9591 15.6295 19.8448C15.6944 19.7305 15.7813 19.6301 15.885 19.5493C16.0945 19.3862 16.3603 19.313 16.6237 19.3459C16.7542 19.3621 16.8802 19.4039 16.9945 19.4688C17.1088 19.5338 17.2092 19.6206 17.29 19.7243L18.92 21.8043L22.7 16.8043C22.7801 16.6993 22.8801 16.611 22.9943 16.5446C23.1086 16.4782 23.2347 16.435 23.3657 16.4173C23.4966 16.3997 23.6297 16.408 23.7574 16.4418C23.8851 16.4756 24.0049 16.5342 24.11 16.6143C24.2151 16.6944 24.3033 16.7945 24.3697 16.9087C24.4361 17.0229 24.4794 17.1491 24.497 17.28C24.5147 17.4109 24.5063 17.544 24.4725 17.6718C24.4387 17.7995 24.3801 17.9193 24.3 18.0243V18.0543Z" fill="currentColor"/>
</symbol><symbol id="close" viewBox="0 0 24 24">
    <path d="M12 22C17.5 22 22 17.5 22 12C22 6.5 17.5 2 12 2C6.5 2 2 6.5 2 12C2 17.5 6.5 22 12 22Z" stroke="currentColor" fill-opacity="0" stroke-width="1.5" stroke-linecap="round" stroke-linejoin="round"/>
    <path d="M9.16998 14.83L14.83 9.17004" stroke="currentColor" fill-opacity="0" stroke-width="1.5" stroke-linecap="round" stroke-linejoin="round"/>
    <path d="M14.83 14.83L9.16998 9.17004" stroke="currentColor" fill-opacity="0" stroke-width="1.5" stroke-linecap="round" stroke-linejoin="round"/>
</symbol><symbol id="down" viewBox="0 0 24 24">
    <path fill-rule="evenodd" clip-rule="evenodd" d="M6.46967 8.96967C6.76256 8.67678 7.23744 8.67678 7.53033 8.96967L12 13.4393L16.4697 8.96967C16.7626 8.67678 17.2374 8.67678 17.5303 8.96967C17.8232 9.26256 17.8232 9.73744 17.5303 10.0303L12.5303 15.0303C12.3897 15.171 12.1989 15.25 12 15.25C11.8011 15.25 11.6103 15.171 11.4697 15.0303L6.46967 10.0303C6.17678 9.73744 6.17678 9.26256 6.46967 8.96967Z" fill="currentColor" stroke="currentColor" stroke-linecap="round" stroke-linejoin="round"/>
</symbol><symbol id="download" viewBox="0 0 24 24"><path d="M3 15v4c0 1.1.9 2 2 2h14a2 2 0 0 0 2-2v-4M17 9l-5 5-5-5M12 12.8V2.5"/></symbol><symbol id="eye" viewBox="0 0 24 24">
    <path fill-rule="evenodd" clip-rule="evenodd" d="M3.93799 8.5797C7.55608 2.47343 16.4439 2.47343 20.062 8.5797C21.3127 10.6905 21.3127 13.3095 20.062 15.4203C16.4439 21.5266 7.55608 21.5266 3.93799 15.4203C2.68734 13.3095 2.68734 10.6905 3.93799 8.5797ZM9.36532 12.0548C9.36532 10.5934 10.5446 9.41018 11.9995 9.41018C13.4547 9.41018 14.6347 10.5937 14.6347 12.0548C14.6347 13.5148 13.4548 14.6984 11.9995 14.6984C10.5444 14.6984 9.36532 13.5151 9.36532 12.0548ZM11.9995 8.17147C9.86264 8.17147 8.13103 9.90954 8.13103 12.0548C8.13103 14.1992 9.86276 15.9371 11.9995 15.9371C14.136 15.9371 15.869 14.1995 15.869 12.0548C15.869 9.90928 14.1361 8.17147 11.9995 8.17147Z" fill="#6E717C"/>
</symbol><symbol id="greater" viewBox="0 0 24 24"><path d="M9 18l6-6-6-6"/></symbol><symbol id="info" viewBox="0 0 40 40">
    <circle opacity="0.16" cx="20" cy="20" r="20" fill="currentColor"/>
    <path d="M20 10C25.523 10 30 14.478 30 20C30 25.522 25.523 30 20 30C14.477 30 10 25.522 10 20C10 14.478 14.477 10 20 10ZM20.002 23.004C19.8682 22.9998 19.7349 23.0225 19.6101 23.0707C19.4853 23.119 19.3714 23.1919 19.2753 23.285C19.1791 23.3782 19.1027 23.4897 19.0505 23.6129C18.9983 23.7362 18.9714 23.8686 18.9714 24.0025C18.9714 24.1364 18.9983 24.2688 19.0505 24.3921C19.1027 24.5153 19.1791 24.6268 19.2753 24.72C19.3714 24.8131 19.4853 24.886 19.6101 24.9343C19.7349 24.9825 19.8682 25.0052 20.002 25.001C20.2613 24.9928 20.5073 24.884 20.6879 24.6976C20.8684 24.5113 20.9694 24.262 20.9694 24.0025C20.9694 23.743 20.8684 23.4937 20.6879 23.3074C20.5073 23.121 20.2613 23.0122 20.002 23.004ZM20 15C19.7549 15.0001 19.5184 15.0901 19.3353 15.2531C19.1523 15.4161 19.0354 15.6406 19.007 15.884L19 16L19.002 21.001L19.009 21.118C19.0379 21.361 19.155 21.5851 19.338 21.7476C19.521 21.9101 19.7572 21.9999 20.002 21.9999C20.2468 21.9999 20.483 21.9101 20.666 21.7476C20.849 21.5851 20.9661 21.361 20.995 21.118L21.002 21.001L21 16L20.993 15.883C20.9643 15.6397 20.8474 15.4155 20.6644 15.2527C20.4813 15.09 20.2449 15 20 15Z" fill="currentColor"/>
</symbol><symbol id="info_2" viewBox="0 0 16 16">
    <g clip-path="url(#clip0_2621_25829)">
        <path d="M7.99967 0.708984C3.97905 0.708984 0.708008 3.98003 0.708008 8.00065C0.708008 12.0213 3.97905 15.2923 7.99967 15.2923C12.0203 15.2923 15.2913 12.0213 15.2913 8.00065C15.2913 3.98003 12.0203 0.708984 7.99967 0.708984ZM7.99967 3.69857C8.18715 3.69857 8.37042 3.75416 8.52631 3.85832C8.68219 3.96248 8.80369 4.11052 8.87543 4.28373C8.94718 4.45694 8.96595 4.64754 8.92938 4.83141C8.8928 5.01529 8.80252 5.18419 8.66995 5.31676C8.53738 5.44933 8.36848 5.53961 8.1846 5.57619C8.00073 5.61276 7.81013 5.59399 7.63692 5.52225C7.46371 5.4505 7.31567 5.329 7.21151 5.17312C7.10735 5.01723 7.05176 4.83396 7.05176 4.64648C7.05176 4.39508 7.15163 4.15397 7.3294 3.97621C7.50716 3.79844 7.74827 3.69857 7.99967 3.69857ZM10.333 11.9382H5.95801V10.7715H7.56217V7.56315H6.39551V6.39648H8.72884V10.7715H10.333V11.9382Z" fill="#575A65"/>
    </g>
    
</symbol><symbol id="invoice" viewBox="0 0 20 20">
    <path d="M13.1501 1.6665H6.85008C3.70008 1.6665 2.91675 2.50817 2.91675 5.8665V15.2498C2.91675 17.4665 4.13341 17.9915 5.60842 16.4082L5.61675 16.3998C6.30008 15.6748 7.34175 15.7332 7.93342 16.5248L8.77508 17.6498C9.45008 18.5415 10.5417 18.5415 11.2167 17.6498L12.0584 16.5248C12.6584 15.7248 13.7001 15.6665 14.3834 16.3998C15.8667 17.9832 17.0751 17.4582 17.0751 15.2415V5.8665C17.0834 2.50817 16.3001 1.6665 13.1501 1.6665ZM12.2917 8.95817H7.70842C7.36675 8.95817 7.08342 8.67484 7.08342 8.33317C7.08342 7.9915 7.36675 7.70817 7.70842 7.70817H12.2917C12.6334 7.70817 12.9167 7.9915 12.9167 8.33317C12.9167 8.67484 12.6334 8.95817 12.2917 8.95817Z" fill="currentColor"/>
</symbol><symbol id="location" viewBox="0 0 24 24"><circle cx="12" cy="10" r="3"/><path d="M12 21.7C17.3 17 20 13 20 10a8 8 0 1 0-16 0c0 3 2.7 6.9 8 11.7z"/></symbol><symbol id="next" viewBox="0 0 24 24"><path d="M5 12h13M12 5l7 7-7 7"/></symbol><symbol id="open-eye" viewBox="0 0 24 24"><path d="M1 12s4-8 11-8 11 8 11 8-4 8-11 8-11-8-11-8z"/><circle cx="12" cy="12" r="3"/></symbol><symbol id="v-dot" viewBox="0 0 24 24">
    <path d="M12 13C12.5523 13 13 12.5523 13 12C13 11.4477 12.5523 11 12 11C11.4477 11 11 11.4477 11 12C11 12.5523 11.4477 13 12 13Z" stroke="currentColor" stroke-width="2" stroke-linecap="round" stroke-linejoin="round"/>
    <path d="M12 6C12.5523 6 13 5.55228 13 5C13 4.44772 12.5523 4 12 4C11.4477 4 11 4.44772 11 5C11 5.55228 11.4477 6 12 6Z" stroke="currentColor" stroke-width="2" stroke-linecap="round" stroke-linejoin="round"/>
    <path d="M12 20C12.5523 20 13 19.5523 13 19C13 18.4477 12.5523 18 12 18C11.4477 18 11 18.4477 11 19C11 19.5523 11.4477 20 12 20Z" stroke="currentColor" stroke-width="2" stroke-linecap="round" stroke-linejoin="round"/>
</symbol><symbol id="warning" viewBox="0 0 90 90">
    <g clip-path="url(#clip0_1690_35559)">
        <path d="M55.7851 10.0219C54.7013 8.11727 53.1325 6.53361 51.2381 5.43197C49.3438 4.33033 47.1915 3.75 45.0001 3.75C42.8087 3.75 40.6564 4.33033 38.762 5.43197C36.8677 6.53361 35.2988 8.11727 34.2151 10.0219L1.55258 68.2144C0.515392 70.0406 -0.0208017 72.1084 -0.0017044 74.2084C0.017393 76.3085 0.591103 78.3662 1.66133 80.1732C2.74727 82.0374 4.30667 83.5815 6.18155 84.649C8.05643 85.7165 10.1802 86.2695 12.3376 86.2519H77.6626C79.82 86.2695 81.9437 85.7165 83.8186 84.649C85.6935 83.5815 87.2529 82.0374 88.3388 80.1732C89.409 78.3662 89.9828 76.3085 90.0019 74.2084C90.021 72.1084 89.4848 70.0406 88.4476 68.2144L55.7851 10.0219ZM45.0001 71.2519C44.2584 71.2519 43.5334 71.032 42.9167 70.6199C42.3 70.2079 41.8194 69.6222 41.5355 68.937C41.2517 68.2517 41.1774 67.4977 41.3221 66.7703C41.4668 66.0429 41.824 65.3747 42.3484 64.8503C42.8729 64.3258 43.5411 63.9687 44.2685 63.824C44.9959 63.6793 45.7499 63.7535 46.4351 64.0374C47.1204 64.3212 47.706 64.8018 48.1181 65.4185C48.5301 66.0352 48.7501 66.7602 48.7501 67.5019C48.7501 68.4965 48.355 69.4503 47.6517 70.1536C46.9485 70.8568 45.9946 71.2519 45.0001 71.2519ZM48.7501 52.5019C48.7501 53.4965 48.355 54.4503 47.6517 55.1536C46.9485 55.8568 45.9946 56.2519 45.0001 56.2519C44.0055 56.2519 43.0517 55.8568 42.3484 55.1536C41.6452 54.4503 41.2501 53.4965 41.2501 52.5019V30.0019C41.2501 29.0073 41.6452 28.0535 42.3484 27.3503C43.0517 26.647 44.0055 26.2519 45.0001 26.2519C45.9946 26.2519 46.9485 26.647 47.6517 27.3503C48.355 28.0535 48.7501 29.0073 48.7501 30.0019V52.5019Z" fill="#E13D45"/>
    </g>
    
</symbol></svg>