<svg width="97" height="50" viewBox="0 0 97 50" fill="none" xmlns="http://www.w3.org/2000/svg">
    <rect x="18" width="57" height="24" rx="12" fill="#E13D45" />
    <path
        d="M28.1885 15L28.1992 13.8882H29.8535C30.3333 13.8882 30.7344 13.7843 31.0566 13.5767C31.3789 13.369 31.6224 13.0718 31.7871 12.6851C31.9518 12.2948 32.0342 11.8293 32.0342 11.2886V10.8804C32.0342 10.3254 31.9518 9.85628 31.7871 9.47314C31.626 9.09001 31.3861 8.79818 31.0674 8.59766C30.7487 8.39714 30.3602 8.29688 29.9019 8.29688H28.1562V7.17969H29.9019C30.6001 7.17969 31.2124 7.33366 31.7388 7.6416C32.2687 7.94954 32.6823 8.38102 32.9795 8.93604C33.2767 9.49105 33.4253 10.1427 33.4253 10.8911V11.2886C33.4253 12.0405 33.2767 12.694 32.9795 13.249C32.6823 13.804 32.2651 14.2355 31.728 14.5435C31.1945 14.8478 30.5697 15 29.8535 15H28.1885ZM28.9619 15H27.5762V7.17969H28.9619V15ZM35.9712 15H34.6392V9.18848H35.9067L35.9712 10.3271V15ZM37.7222 10.4131C37.6398 10.3988 37.5521 10.388 37.459 10.3809C37.3695 10.3737 37.2799 10.3701 37.1904 10.3701C36.8968 10.3701 36.6515 10.4238 36.4546 10.5312C36.2612 10.6351 36.1144 10.7855 36.0142 10.9824C35.9139 11.1758 35.8548 11.4049 35.8369 11.6699L35.5308 11.6753C35.5308 11.1847 35.5952 10.7443 35.7241 10.354C35.853 9.9637 36.0464 9.65397 36.3042 9.4248C36.562 9.19564 36.8843 9.08105 37.271 9.08105C37.3462 9.08105 37.4303 9.08822 37.5234 9.10254C37.6165 9.11686 37.6864 9.13298 37.7329 9.15088L37.7222 10.4131ZM38.1841 12.0405C38.1841 11.4748 38.2915 10.9699 38.5063 10.5259C38.7212 10.0819 39.0291 9.73096 39.4302 9.47314C39.8348 9.21175 40.32 9.08105 40.8857 9.08105C41.4587 9.08105 41.9474 9.21175 42.3521 9.47314C42.7567 9.73096 43.0646 10.0819 43.2759 10.5259C43.4907 10.9699 43.5981 11.4748 43.5981 12.0405V12.1533C43.5981 12.7155 43.4907 13.2204 43.2759 13.668C43.0646 14.112 42.7567 14.4629 42.3521 14.7207C41.951 14.9785 41.4658 15.1074 40.8965 15.1074C40.3271 15.1074 39.8402 14.9785 39.4355 14.7207C39.0309 14.4629 38.7212 14.112 38.5063 13.668C38.2915 13.2204 38.1841 12.7155 38.1841 12.1533V12.0405ZM39.5161 12.1533C39.5161 12.4971 39.5645 12.8122 39.6611 13.0986C39.7578 13.3815 39.9064 13.6089 40.1069 13.7808C40.311 13.9526 40.5742 14.0386 40.8965 14.0386C41.2152 14.0386 41.4748 13.9526 41.6753 13.7808C41.8794 13.6089 42.028 13.3815 42.1211 13.0986C42.2178 12.8122 42.2661 12.4971 42.2661 12.1533V12.0405C42.2661 11.7004 42.2178 11.387 42.1211 11.1006C42.028 10.8141 41.8794 10.585 41.6753 10.4131C41.4712 10.2376 41.208 10.1499 40.8857 10.1499C40.5671 10.1499 40.3057 10.2376 40.1016 10.4131C39.901 10.585 39.7524 10.8141 39.6558 11.1006C39.5627 11.387 39.5161 11.7004 39.5161 12.0405V12.1533ZM46.0151 17.2344H44.6831V9.18848H45.9131L46.0151 10.3057V17.2344ZM49.7856 12.1479C49.7856 12.7137 49.6979 13.2204 49.5225 13.668C49.3506 14.112 49.0964 14.4629 48.7598 14.7207C48.4268 14.9785 48.0186 15.1074 47.5352 15.1074C47.0482 15.1074 46.6436 14.9893 46.3213 14.7529C46.0026 14.513 45.7537 14.1836 45.5747 13.7646C45.3957 13.3457 45.2721 12.8677 45.2041 12.3306V11.9492C45.2721 11.3763 45.3957 10.8768 45.5747 10.4507C45.7537 10.021 46.0026 9.6862 46.3213 9.44629C46.64 9.2028 47.0392 9.08105 47.519 9.08105C48.0096 9.08105 48.4232 9.20459 48.7598 9.45166C49.0964 9.69873 49.3506 10.0443 49.5225 10.4883C49.6979 10.9323 49.7856 11.4479 49.7856 12.0352V12.1479ZM48.4536 12.0352C48.4536 11.6878 48.4089 11.3727 48.3193 11.0898C48.2334 10.807 48.0938 10.5832 47.9004 10.4185C47.7106 10.2537 47.4618 10.1714 47.1538 10.1714C46.9318 10.1714 46.7402 10.209 46.5791 10.2842C46.418 10.3558 46.2819 10.4578 46.1709 10.5903C46.0635 10.7228 45.9793 10.8804 45.9185 11.063C45.8576 11.242 45.8146 11.439 45.7896 11.6538V12.626C45.8325 12.8838 45.9041 13.1201 46.0044 13.335C46.1047 13.5498 46.2479 13.7217 46.4341 13.8506C46.6239 13.9759 46.8674 14.0386 47.1646 14.0386C47.4725 14.0386 47.7214 13.9526 47.9111 13.7808C48.1009 13.6053 48.2388 13.3761 48.3247 13.0933C48.4106 12.8068 48.4536 12.4917 48.4536 12.1479V12.0352ZM53.3628 12.0405C53.3628 11.4748 53.4702 10.9699 53.6851 10.5259C53.8999 10.0819 54.2078 9.73096 54.6089 9.47314C55.0135 9.21175 55.4987 9.08105 56.0645 9.08105C56.6374 9.08105 57.1261 9.21175 57.5308 9.47314C57.9354 9.73096 58.2433 10.0819 58.4546 10.5259C58.6694 10.9699 58.7769 11.4748 58.7769 12.0405V12.1533C58.7769 12.7155 58.6694 13.2204 58.4546 13.668C58.2433 14.112 57.9354 14.4629 57.5308 14.7207C57.1297 14.9785 56.6445 15.1074 56.0752 15.1074C55.5059 15.1074 55.0189 14.9785 54.6143 14.7207C54.2096 14.4629 53.8999 14.112 53.6851 13.668C53.4702 13.2204 53.3628 12.7155 53.3628 12.1533V12.0405ZM54.6948 12.1533C54.6948 12.4971 54.7432 12.8122 54.8398 13.0986C54.9365 13.3815 55.0851 13.6089 55.2856 13.7808C55.4897 13.9526 55.7529 14.0386 56.0752 14.0386C56.3939 14.0386 56.6535 13.9526 56.854 13.7808C57.0581 13.6089 57.2067 13.3815 57.2998 13.0986C57.3965 12.8122 57.4448 12.4971 57.4448 12.1533V12.0405C57.4448 11.7004 57.3965 11.387 57.2998 11.1006C57.2067 10.8141 57.0581 10.585 56.854 10.4131C56.6499 10.2376 56.3867 10.1499 56.0645 10.1499C55.7458 10.1499 55.4844 10.2376 55.2803 10.4131C55.0798 10.585 54.9312 10.8141 54.8345 11.1006C54.7414 11.387 54.6948 11.7004 54.6948 12.0405V12.1533ZM60.313 15V8.63525C60.313 7.99072 60.4956 7.49658 60.8608 7.15283C61.2261 6.80908 61.7256 6.63721 62.3594 6.63721C62.4883 6.63721 62.6154 6.64616 62.7407 6.66406C62.866 6.68197 62.9878 6.70524 63.106 6.73389L63.0737 7.77588C63.0057 7.76156 62.9287 7.75081 62.8428 7.74365C62.7568 7.73649 62.6673 7.73291 62.5742 7.73291C62.2806 7.73291 62.0514 7.81169 61.8867 7.96924C61.7256 8.12321 61.645 8.34521 61.645 8.63525V15H60.313ZM62.832 10.1714H59.4268V9.18848H62.832V10.1714ZM64.2124 15V8.63525C64.2124 7.99072 64.395 7.49658 64.7603 7.15283C65.1255 6.80908 65.625 6.63721 66.2588 6.63721C66.3877 6.63721 66.5148 6.64616 66.6401 6.66406C66.7655 6.68197 66.8872 6.70524 67.0054 6.73389L66.9731 7.77588C66.9051 7.76156 66.8281 7.75081 66.7422 7.74365C66.6562 7.73649 66.5667 7.73291 66.4736 7.73291C66.18 7.73291 65.9508 7.81169 65.7861 7.96924C65.625 8.12321 65.5444 8.34521 65.5444 8.63525V15H64.2124ZM66.7314 10.1714H63.3262V9.18848H66.7314V10.1714Z"
        fill="white" />
    <path d="M47 24H49V43C49 43.5523 48.5523 44 48 44V44C47.4477 44 47 43.5523 47 43V24Z" fill="#E13D45" />
    <circle cx="48" cy="42" r="8" fill="#E13D45" />
    <circle cx="48" cy="42" r="3" fill="white" />
</svg>