<svg width="28" height="27" viewBox="0 0 28 27" fill="none" xmlns="http://www.w3.org/2000/svg">
    <path
        d="M24.2255 5.21961C22.9621 3.59181 21.3426 2.27508 19.4913 1.3704C17.6399 0.465722 15.606 -0.0028727 13.5454 0.000639696C10.5535 -0.0293711 7.64697 0.997424 5.3378 2.9001C3.71097 4.18346 2.38885 5.81147 1.46659 7.66701C0.544333 9.52255 0.044863 11.5594 0.00412824 13.6311C-0.0736564 16.5994 0.950105 19.4913 2.87806 21.7495C7.3897 27.5484 16.0051 28.7082 21.7466 24.0691C23.3656 22.8444 24.6865 21.2693 25.6102 19.4616C26.5339 17.6539 27.0365 15.6607 27.0803 13.6311C27.0994 10.7317 25.8696 7.83228 24.2255 5.21961ZM20.9437 14.7782C20.9437 15.9379 20.1217 16.811 19.306 17.6776L11.5126 23.1897L11.0984 18.8374L16.4321 15.3581C16.4321 15.3581 16.8399 15.3581 16.8399 15.0649C17.2541 14.7782 17.2541 14.485 17.2541 13.9052C17.0793 13.7661 16.8626 13.6904 16.6392 13.6904C16.4158 13.6904 16.1991 13.7661 16.0243 13.9052C15.6101 13.9052 15.6101 14.1983 15.6101 14.1983L12.7425 16.5178H12.3283C11.9205 16.811 11.5126 16.811 11.0984 17.0977C10.2594 17.242 9.39697 17.1565 8.60265 16.8502C7.80832 16.5439 7.11173 16.0283 6.58678 15.3581C6.03798 14.3907 5.8915 13.2463 6.17895 12.1719C6.22364 11.6398 6.39506 11.1261 6.67886 10.6738C6.96266 10.2215 7.35061 9.84367 7.81028 9.57195L15.6037 3.77311L16.0179 8.11907L10.6842 11.8915H10.2764C10.1208 12.0385 10.0022 12.2201 9.93018 12.4217C9.85819 12.6233 9.83489 12.839 9.86218 13.0513C10.2764 13.6312 10.6842 13.6312 11.092 13.338C11.092 13.0513 11.5063 13.0513 11.5063 12.7581L14.3738 10.7317L14.788 10.4386C15.1959 10.4386 15.6037 10.1519 16.0179 10.1519C16.7599 9.85336 17.5854 9.83557 18.3396 10.1018C19.0938 10.3681 19.7251 10.9001 20.1153 11.5984C20.9437 12.7581 21.3579 13.9179 20.9437 14.7909V14.7782Z"
        fill="#20E682" />
</svg>