<svg width="97" height="50" viewBox="0 0 97 50" fill="none" xmlns="http://www.w3.org/2000/svg">
    <rect x="22" width="53" height="24" rx="12" fill="#0DAC5C" />
    <path
        d="M32.3242 12.1157V10.9985H34.3438C34.6947 10.9985 34.9757 10.943 35.187 10.832C35.4019 10.721 35.5594 10.5671 35.6597 10.3701C35.7599 10.1732 35.8101 9.94759 35.8101 9.69336C35.8101 9.44987 35.7599 9.22249 35.6597 9.01123C35.5594 8.79997 35.4019 8.62809 35.187 8.49561C34.9757 8.36312 34.6947 8.29688 34.3438 8.29688H32.7432V15H31.3574V7.17969H34.3438C34.9525 7.17969 35.4699 7.28711 35.896 7.50195C36.3221 7.7168 36.6462 8.01221 36.8682 8.38818C37.0938 8.76416 37.2065 9.19564 37.2065 9.68262C37.2065 10.1875 37.0938 10.6226 36.8682 10.9878C36.6462 11.3494 36.3221 11.6287 35.896 11.8257C35.4699 12.019 34.9525 12.1157 34.3438 12.1157H32.3242ZM39.688 15H38.356V9.18848H39.688V15ZM38.27 7.66846C38.27 7.46436 38.3363 7.29606 38.4688 7.16357C38.6012 7.02751 38.7856 6.95947 39.022 6.95947C39.2583 6.95947 39.4445 7.02751 39.5806 7.16357C39.7166 7.29606 39.7847 7.46436 39.7847 7.66846C39.7847 7.86898 39.7166 8.03727 39.5806 8.17334C39.4445 8.30583 39.2583 8.37207 39.022 8.37207C38.7856 8.37207 38.6012 8.30583 38.4688 8.17334C38.3363 8.03727 38.27 7.86898 38.27 7.66846ZM43.48 14.0386C43.6877 14.0386 43.8757 13.9974 44.0439 13.915C44.2122 13.8291 44.3465 13.7127 44.4468 13.5659C44.547 13.4191 44.6025 13.2508 44.6133 13.061H45.8701C45.8594 13.4442 45.7466 13.7897 45.5317 14.0977C45.3169 14.4056 45.0322 14.6509 44.6777 14.8335C44.3232 15.0161 43.9276 15.1074 43.4907 15.1074C42.8999 15.1074 42.4076 14.9767 42.0137 14.7153C41.6234 14.4504 41.3315 14.0977 41.1382 13.6572C40.9448 13.2132 40.8481 12.7227 40.8481 12.1855V12.0029C40.8481 11.4658 40.9448 10.9771 41.1382 10.5366C41.3315 10.0926 41.6234 9.73991 42.0137 9.47852C42.4076 9.21354 42.8999 9.08105 43.4907 9.08105C43.9598 9.08105 44.3698 9.17415 44.7207 9.36035C45.0752 9.54297 45.3527 9.79899 45.5532 10.1284C45.7537 10.4578 45.8594 10.8428 45.8701 11.2832H44.6133C44.6025 11.0755 44.5506 10.8857 44.4575 10.7139C44.368 10.542 44.2391 10.4059 44.0708 10.3057C43.9061 10.2018 43.7074 10.1499 43.4746 10.1499C43.1309 10.1499 42.8641 10.2394 42.6743 10.4185C42.4881 10.5975 42.3592 10.8285 42.2876 11.1113C42.216 11.3942 42.1802 11.6914 42.1802 12.0029V12.1855C42.1802 12.5007 42.2142 12.7996 42.2822 13.0825C42.3538 13.3654 42.4845 13.5964 42.6743 13.7754C42.8641 13.9508 43.1326 14.0386 43.48 14.0386ZM48.1904 15H46.853V6.75H48.1904V15ZM49.2808 12.0029L47.8789 13.4263L47.5244 12.3145L48.5825 10.9985L50.1885 9.18848H51.7944L49.2808 12.0029ZM48.6201 12.2876L49.4634 11.3638L52.0146 15H50.4678L48.6201 12.2876ZM58.8306 9.18848H60.1626V15H58.9058L58.8306 13.625V9.18848ZM59.459 12.4004C59.459 12.9232 59.382 13.3887 59.228 13.7969C59.0741 14.2015 58.8341 14.522 58.5083 14.7583C58.1825 14.991 57.7599 15.1074 57.2407 15.1074C56.6678 15.1074 56.2041 14.9391 55.8496 14.6025C55.4951 14.266 55.3179 13.7127 55.3179 12.9429V9.18848H56.6499V12.9536C56.6499 13.2222 56.6911 13.4352 56.7734 13.5928C56.8594 13.7467 56.9722 13.856 57.1118 13.9204C57.2515 13.9849 57.4054 14.0171 57.5737 14.0171C57.9354 14.0171 58.2201 13.9473 58.4277 13.8076C58.639 13.6644 58.7894 13.471 58.8789 13.2275C58.9684 12.984 59.0132 12.7119 59.0132 12.4111L59.459 12.4004ZM62.8052 17.2344H61.4731V9.18848H62.7031L62.8052 10.3057V17.2344ZM66.5757 12.1479C66.5757 12.7137 66.488 13.2204 66.3125 13.668C66.1406 14.112 65.8864 14.4629 65.5498 14.7207C65.2168 14.9785 64.8086 15.1074 64.3252 15.1074C63.8382 15.1074 63.4336 14.9893 63.1113 14.7529C62.7926 14.513 62.5438 14.1836 62.3647 13.7646C62.1857 13.3457 62.0622 12.8677 61.9941 12.3306V11.9492C62.0622 11.3763 62.1857 10.8768 62.3647 10.4507C62.5438 10.021 62.7926 9.6862 63.1113 9.44629C63.43 9.2028 63.8293 9.08105 64.3091 9.08105C64.7996 9.08105 65.2132 9.20459 65.5498 9.45166C65.8864 9.69873 66.1406 10.0443 66.3125 10.4883C66.488 10.9323 66.5757 11.4479 66.5757 12.0352V12.1479ZM65.2437 12.0352C65.2437 11.6878 65.1989 11.3727 65.1094 11.0898C65.0234 10.807 64.8838 10.5832 64.6904 10.4185C64.5007 10.2537 64.2518 10.1714 63.9438 10.1714C63.7218 10.1714 63.5303 10.209 63.3691 10.2842C63.208 10.3558 63.0719 10.4578 62.9609 10.5903C62.8535 10.7228 62.7694 10.8804 62.7085 11.063C62.6476 11.242 62.6047 11.439 62.5796 11.6538V12.626C62.6226 12.8838 62.6942 13.1201 62.7944 13.335C62.8947 13.5498 63.0379 13.7217 63.2241 13.8506C63.4139 13.9759 63.6574 14.0386 63.9546 14.0386C64.2625 14.0386 64.5114 13.9526 64.7012 13.7808C64.891 13.6053 65.0288 13.3761 65.1147 13.0933C65.2007 12.8068 65.2437 12.4917 65.2437 12.1479V12.0352Z"
        fill="white" />
    <path d="M47 24H49V43C49 43.5523 48.5523 44 48 44V44C47.4477 44 47 43.5523 47 43V24Z" fill="#0DAC5C" />
    <circle cx="48" cy="42" r="8" fill="#0DAC5C" />
    <circle cx="48" cy="42" r="3" fill="white" />
</svg>