<svg width="22" height="22" viewBox="0 0 22 22" fill="none" xmlns="http://www.w3.org/2000/svg">
    <rect x="0.75" y="0.75" width="20.5" height="20.5" rx="10.25" fill="white" />
    <path
        d="M10.9128 9C11.7084 9 12.4715 8.68393 13.0341 8.12132C13.5967 7.55871 13.9128 6.79565 13.9128 6C13.9128 5.20435 13.5967 4.44129 13.0341 3.87868C12.4715 3.31607 11.7084 3 10.9128 3C10.1171 3 9.35409 3.31607 8.79148 3.87868C8.22887 4.44129 7.9128 5.20435 7.9128 6C7.9128 6.79565 8.22887 7.55871 8.79148 8.12132C9.35409 8.68393 10.1171 9 10.9128 9ZM4.3778 15.493C4.28496 15.7411 4.27472 16.0126 4.34859 16.267C4.42247 16.5214 4.57651 16.7452 4.7878 16.905C6.53913 18.266 8.69478 19.0034 10.9128 19C13.2228 19 15.3508 18.216 17.0438 16.9C17.4738 16.567 17.6478 15.997 17.4518 15.49C16.944 14.168 16.0474 13.0311 14.8801 12.2292C13.7129 11.4274 12.3299 10.9983 10.9138 10.9986C9.49763 10.9989 8.11487 11.4287 6.94799 12.231C5.78111 13.0334 4.88495 14.1708 4.3778 15.493Z"
        fill="#4848ED" />
    <rect x="0.75" y="0.75" width="20.5" height="20.5" rx="10.25" stroke="#4848ED" stroke-width="1.5" />
</svg>