<svg width="126" height="126" viewBox="0 0 126 126" fill="none" xmlns="http://www.w3.org/2000/svg">
    <rect width="126" height="126" rx="63" fill="#F9FAFB" />
    <path
        d="M84 86.625V81.375C84 78.5902 82.8938 75.9195 80.9246 73.9504C78.9555 71.9813 76.2848 70.875 73.5 70.875H52.5C49.7152 70.875 47.0445 71.9813 45.0754 73.9504C43.1062 75.9195 42 78.5902 42 81.375V86.625M73.5 49.875C73.5 55.674 68.799 60.375 63 60.375C57.201 60.375 52.5 55.674 52.5 49.875C52.5 44.076 57.201 39.375 63 39.375C68.799 39.375 73.5 44.076 73.5 49.875Z"
        stroke="#475467" stroke-width="2.66667" stroke-linecap="round" stroke-linejoin="round" />
</svg>