<svg width="20" height="21" viewBox="0 0 20 21" fill="none" xmlns="http://www.w3.org/2000/svg">
<path fill-rule="evenodd" clip-rule="evenodd" d="M10 2.5C8.40871 2.5 6.88258 3.13214 5.75736 4.25736C4.63215 5.38258 4 6.9087 4 8.5C4 10.387 3.546 12.165 2.743 13.734C2.69041 13.8368 2.66225 13.9503 2.66071 14.0657C2.65917 14.1811 2.6843 14.2954 2.73414 14.3995C2.78398 14.5036 2.85718 14.5948 2.94804 14.666C3.03891 14.7372 3.14498 14.7865 3.258 14.81C4.33417 15.0336 5.42087 15.2031 6.514 15.318C6.59211 16.1886 6.99317 16.9985 7.63829 17.5883C8.28341 18.1782 9.12589 18.5053 10 18.5053C10.8741 18.5053 11.7166 18.1782 12.3617 17.5883C13.0068 16.9985 13.4079 16.1886 13.486 15.318C14.5791 15.2032 15.6658 15.0336 16.742 14.81C16.855 14.7865 16.9611 14.7372 17.052 14.666C17.1428 14.5948 17.216 14.5036 17.2659 14.3995C17.3157 14.2954 17.3408 14.1811 17.3393 14.0657C17.3378 13.9503 17.3096 13.8368 17.257 13.734C16.428 12.114 15.9971 10.3198 16 8.5C16 6.9087 15.3679 5.38258 14.2426 4.25736C13.1174 3.13214 11.5913 2.5 10 2.5ZM8.05 15.443C9.3489 15.5186 10.6511 15.5186 11.95 15.443C11.8493 15.8849 11.6015 16.2794 11.2472 16.5621C10.893 16.8447 10.4532 16.9986 10 16.9986C9.54681 16.9986 9.10705 16.8447 8.75277 16.5621C8.39849 16.2794 8.15071 15.8849 8.05 15.443Z" fill="#4848ED"/>
</svg>
