<svg data-v-d94d508e="" width="16" height="12" viewBox="0 0 16 12" fill="none" xmlns="http://www.w3.org/2000/svg"><path data-v-d94d508e="" d="M8 0.117188C3.58169 0.117188 0 3.06571 0 5.76425C0 7.11648 0.899529 7.82213 2.35294 8.1897V9.52895C2.35294 10.9407 5.64706 11.8819 8 11.8819C10.3529 11.8819 13.6471 10.9407 13.6471 9.52895V8.1897C15.1005 7.82213 16 7.11648 16 5.76425C16 3.06571 12.4183 0.117188 8 0.117188ZM6.58824 1.99954H9.41177V3.88189C9.41177 4.66156 8 5.29366 8 5.29366C8 5.29366 6.58824 4.66156 6.58824 3.88189V1.99954ZM13.6471 7.6466H2.35294V6.70542H13.6471V7.6466Z" fill="#4848ED"></path></svg>