<svg width="32" height="32" viewBox="0 0 32 32" fill="none" xmlns="http://www.w3.org/2000/svg">
<circle cx="16" cy="16" r="16" fill="#2323F0"/>
<path d="M14.5746 8.3843L7.5165 20.1673C7.37097 20.4193 7.29397 20.7051 7.29316 20.9961C7.29234 21.2871 7.36774 21.5732 7.51185 21.826C7.65596 22.0789 7.86376 22.2895 8.11457 22.4371C8.36538 22.5847 8.65046 22.6641 8.94146 22.6672H23.0577C23.3487 22.6641 23.6338 22.5847 23.8846 22.4371C24.1354 22.2895 24.3432 22.0789 24.4874 21.826C24.6315 21.5732 24.7069 21.2871 24.706 20.9961C24.7052 20.7051 24.6282 20.4193 24.4827 20.1673L17.4246 8.3843C17.276 8.13939 17.0668 7.93691 16.8172 7.79638C16.5676 7.65586 16.286 7.58203 15.9996 7.58203C15.7132 7.58203 15.4316 7.65586 15.182 7.79638C14.9324 7.93691 14.7232 8.13939 14.5746 8.3843Z" fill="white"/>
<path d="M15.9995 13.2061V16.5393M15.9995 19.8725H16.0078" stroke="#2323F0" stroke-width="1.92495" stroke-linecap="round" stroke-linejoin="round"/>
</svg>
