<svg width="40" height="40" viewBox="0 0 40 40" fill="none" xmlns="http://www.w3.org/2000/svg">
    <circle opacity="0.16" cx="20" cy="20" r="20" fill="currentColor" />
    <circle cx="20" cy="20.4443" r="10" fill="white" />
    <path
        d="M20 10.4443C18.0222 10.4443 16.0888 11.0308 14.4443 12.1296C12.7998 13.2285 11.5181 14.7902 10.7612 16.6175C10.0043 18.4448 9.8063 20.4554 10.1922 22.3952C10.578 24.335 11.5304 26.1169 12.9289 27.5154C14.3275 28.9139 16.1093 29.8663 18.0491 30.2522C19.9889 30.638 21.9996 30.44 23.8268 29.6831C25.6541 28.9263 27.2159 27.6445 28.3147 26C29.4135 24.3555 30 22.4221 30 20.4443C30 19.1311 29.7413 17.8308 29.2388 16.6175C28.7363 15.4042 27.9997 14.3019 27.0711 13.3733C26.1425 12.4447 25.0401 11.7081 23.8268 11.2055C22.6136 10.703 21.3132 10.4443 20 10.4443ZM24.3 18.0543L19.73 24.0543C19.6368 24.1754 19.5172 24.2734 19.3803 24.341C19.2433 24.4086 19.0927 24.444 18.94 24.4443C18.7881 24.4452 18.638 24.4114 18.5011 24.3455C18.3643 24.2797 18.2442 24.1835 18.15 24.0643L15.71 20.9543C15.6292 20.8506 15.5697 20.732 15.5348 20.6052C15.4999 20.4784 15.4903 20.3461 15.5065 20.2156C15.5228 20.0851 15.5646 19.9591 15.6295 19.8448C15.6944 19.7305 15.7813 19.6301 15.885 19.5493C16.0945 19.3862 16.3603 19.313 16.6237 19.3459C16.7542 19.3621 16.8802 19.4039 16.9945 19.4688C17.1088 19.5338 17.2092 19.6206 17.29 19.7243L18.92 21.8043L22.7 16.8043C22.7801 16.6993 22.8801 16.611 22.9943 16.5446C23.1086 16.4782 23.2347 16.435 23.3657 16.4173C23.4966 16.3997 23.6297 16.408 23.7574 16.4418C23.8851 16.4756 24.0049 16.5342 24.11 16.6143C24.2151 16.6944 24.3033 16.7945 24.3697 16.9087C24.4361 17.0229 24.4794 17.1491 24.497 17.28C24.5147 17.4109 24.5063 17.544 24.4725 17.6718C24.4387 17.7995 24.3801 17.9193 24.3 18.0243V18.0543Z"
        fill="currentColor" />
</svg>