<svg width="13" height="16" viewBox="0 0 13 16" fill="none" xmlns="http://www.w3.org/2000/svg">
<path d="M6.28283 15.9985C6.27223 15.9985 6.26163 15.9985 6.25102 15.9985C6.22849 15.9282 6.16355 15.8964 6.11451 15.85C4.99456 14.8083 3.94884 13.695 2.99456 12.4995C2.07475 11.3504 1.24638 10.1416 0.651288 8.78574C0.15427 7.65386 -0.0710451 6.4862 0.134389 5.24962C0.630082 2.25559 3.2318 0.0501535 6.28416 0.0488281C6.28416 0.834779 6.28416 1.62073 6.28416 2.40668C6.09993 2.41463 5.9157 2.41861 5.73147 2.44379C3.19337 2.78839 1.67051 5.52795 2.75599 7.85532C3.44652 9.33445 4.65129 10.0833 6.28416 10.135C6.28416 12.0806 6.28416 14.025 6.28416 15.9706C6.28151 15.9799 6.28151 15.9892 6.28283 15.9985Z" fill="#4848ED"/>
<path d="M6.28442 2.40493C6.28442 1.61898 6.28442 0.833033 6.28442 0.0470818C7.11676 0.0404549 7.92127 0.192874 8.67939 0.532171C10.7443 1.45596 11.9942 3.03184 12.4103 5.26378C12.4448 5.44668 12.4329 5.63621 12.4991 5.81249C12.4991 5.88671 12.4991 5.96093 12.4991 6.03515C12.4461 6.1836 12.4474 6.33071 12.4991 6.47916C12.4991 6.54277 12.4991 6.60639 12.4991 6.67001C12.466 6.67929 12.4687 6.70712 12.4673 6.73363C12.4501 6.96557 12.4064 7.19221 12.3533 7.41753C12.0989 8.51229 11.6032 9.50103 11.016 10.4473C10.0061 12.0749 8.76686 13.5196 7.43088 14.8821C7.06242 15.2585 6.69397 15.6375 6.28442 15.9702C6.28442 14.0246 6.28442 12.0802 6.28442 10.1346C6.50046 10.1253 6.71517 10.108 6.92856 10.0709C8.967 9.71839 10.3626 7.83237 10.0936 5.77936C9.9385 4.59579 9.34738 3.67863 8.35732 3.02256C7.73174 2.60772 7.03326 2.41819 6.28442 2.40493Z" fill="#4848ED"/>
<path d="M12.499 6.48014C12.4473 6.33169 12.446 6.18458 12.499 6.03613C12.499 6.18325 12.499 6.33169 12.499 6.48014Z" fill="#47484F"/>
</svg>
