<svg width="241" height="194" viewBox="0 0 241 194" fill="none" xmlns="http://www.w3.org/2000/svg">
<rect width="241" height="194" fill="white"/>
<path fill-rule="evenodd" clip-rule="evenodd" d="M199.548 63.0508C203.275 63.0508 206.296 66.0908 206.296 69.8408C206.296 73.5908 203.275 76.6308 199.548 76.6308H160.988C164.715 76.6308 167.736 79.6708 167.736 83.4208C167.736 87.1708 164.715 90.2108 160.988 90.2108H182.196C185.923 90.2108 188.944 93.2508 188.944 97.0008C188.944 100.751 185.923 103.791 182.196 103.791H172.388C167.689 103.791 163.88 106.831 163.88 110.581C163.88 113.081 165.808 115.344 169.664 117.371C173.391 117.371 176.412 120.411 176.412 124.161C176.412 127.911 173.391 130.951 169.664 130.951H89.6521C85.9253 130.951 82.9041 127.911 82.9041 124.161C82.9041 120.411 85.9253 117.371 89.6521 117.371H52.0561C48.3293 117.371 45.3081 114.331 45.3081 110.581C45.3081 106.831 48.3293 103.791 52.0561 103.791H90.6161C94.3429 103.791 97.3641 100.751 97.3641 97.0008C97.3641 93.2508 94.3429 90.2108 90.6161 90.2108H66.5161C62.7893 90.2108 59.7681 87.1708 59.7681 83.4208C59.7681 79.6708 62.7893 76.6308 66.5161 76.6308H105.076C101.349 76.6308 98.3281 73.5908 98.3281 69.8408C98.3281 66.0908 101.349 63.0508 105.076 63.0508H199.548ZM199.548 90.2108C203.275 90.2108 206.296 93.2508 206.296 97.0008C206.296 100.751 203.275 103.791 199.548 103.791C195.821 103.791 192.8 100.751 192.8 97.0008C192.8 93.2508 195.821 90.2108 199.548 90.2108Z" fill="#F4F5F4"/>
<path d="M116.162 129.01C133.998 129.01 148.456 114.461 148.456 96.5145C148.456 78.568 133.998 64.0195 116.162 64.0195C98.3267 64.0195 83.8682 78.568 83.8682 96.5145C83.8682 114.461 98.3267 129.01 116.162 129.01Z" fill="#F3F7FF" stroke="#313533" stroke-width="2.5"/>
<path fill-rule="evenodd" clip-rule="evenodd" d="M110.988 121.728C112.683 122.043 114.408 122.206 116.162 122.219C130.271 122.219 141.708 110.71 141.708 96.5136C141.708 82.3171 130.271 70.8086 116.162 70.8086C112.538 70.8086 109.09 71.568 105.967 72.9374C100.539 75.317 96.0933 79.5385 93.4079 84.8172C91.6231 88.3258 90.6162 92.3014 90.6162 96.5136C90.6162 100.335 91.4451 103.962 92.9319 107.223C93.9933 109.55 95.3901 111.69 97.0599 113.581" fill="white"/>
<path d="M110.988 121.728C112.683 122.043 114.408 122.206 116.162 122.219C130.271 122.219 141.708 110.71 141.708 96.5136C141.708 82.3171 130.271 70.8086 116.162 70.8086C112.538 70.8086 109.09 71.568 105.967 72.9374C100.539 75.317 96.0933 79.5385 93.4079 84.8172C91.6231 88.3258 90.6162 92.3014 90.6162 96.5136C90.6162 100.335 91.4451 103.962 92.9319 107.223C93.9933 109.55 95.3901 111.69 97.0599 113.581" stroke="#313533" stroke-width="2.5" stroke-linecap="round"/>
<path d="M100.061 116.473C102.132 118.166 104.471 119.54 107.005 120.519" stroke="#313533" stroke-width="2.5" stroke-linecap="round"/>
<path d="M142.672 122.219L148.456 128.039" stroke="#313533" stroke-width="2.5"/>
<path fill-rule="evenodd" clip-rule="evenodd" d="M147.521 127.1C145.697 128.936 145.697 131.912 147.521 133.748L158.207 144.501C160.032 146.337 162.99 146.337 164.815 144.501C166.639 142.665 166.639 139.688 164.815 137.852L154.129 127.1C152.304 125.264 149.346 125.264 147.521 127.1Z" fill="#FAFAFA" stroke="#313533" stroke-width="2.5"/>
<path d="M152.312 129.008L162.916 139.678" stroke="white" stroke-width="2.5" stroke-linecap="round"/>
<path fill-rule="evenodd" clip-rule="evenodd" d="M109.896 85.3611C109.896 96.6111 118.96 105.731 130.14 105.731C132.337 105.731 134.451 105.379 136.432 104.728C133.199 112.799 125.342 118.497 116.162 118.497C104.098 118.497 94.3174 108.656 94.3174 96.5161C94.3174 85.5158 102.348 76.4029 112.832 74.7891C110.969 77.8719 109.896 81.4904 109.896 85.3611Z" fill="#FAFAFA"/>
<path d="M116.644 78.5703C115.417 78.5703 114.217 78.6918 113.057 78.9235M109.554 80.0021C102.959 82.7906 98.3281 89.3513 98.3281 97.0003" stroke="#737876" stroke-width="2.5" stroke-linecap="round"/>
<path d="M167.905 96.7823H160.024M174.002 89.2383H157.444H174.002ZM180.75 89.2383H178.609H180.75Z" stroke="#737876" stroke-width="2.5" stroke-linecap="round" stroke-linejoin="round"/>
<path d="M81.1457 118.123H73.2642M76.6382 109.609H60.0807H76.6382ZM54.4662 109.609H50.397H54.4662Z" stroke="#737876" stroke-width="2.5" stroke-linecap="round" stroke-linejoin="round"/>
</svg>
