<svg width="166" height="132" viewBox="0 0 166 132" fill="none" xmlns="http://www.w3.org/2000/svg">
<path fill-rule="evenodd" clip-rule="evenodd" d="M137.12 42.8984C139.672 42.8984 141.74 44.9669 141.74 47.5184C141.74 50.07 139.672 52.1384 137.12 52.1384H110.72C113.272 52.1384 115.34 54.2069 115.34 56.7584C115.34 59.31 113.272 61.3784 110.72 61.3784H125.24C127.792 61.3784 129.86 63.4469 129.86 65.9984C129.86 68.55 127.792 70.6184 125.24 70.6184H118.525C115.308 70.6184 112.7 72.6869 112.7 75.2384C112.7 76.9395 114.02 78.4795 116.66 79.8584C119.212 79.8584 121.28 81.9269 121.28 84.4784C121.28 87.03 119.212 89.0984 116.66 89.0984H61.88C59.3285 89.0984 57.26 87.03 57.26 84.4784C57.26 81.9269 59.3285 79.8584 61.88 79.8584H36.14C33.5885 79.8584 31.52 77.79 31.52 75.2384C31.52 72.6869 33.5885 70.6184 36.14 70.6184H62.54C65.0916 70.6184 67.16 68.55 67.16 65.9984C67.16 63.4469 65.0916 61.3784 62.54 61.3784H46.04C43.4885 61.3784 41.42 59.31 41.42 56.7584C41.42 54.2069 43.4885 52.1384 46.04 52.1384H72.44C69.8885 52.1384 67.82 50.07 67.82 47.5184C67.82 44.9669 69.8885 42.8984 72.44 42.8984H137.12ZM137.12 61.3784C139.672 61.3784 141.74 63.4469 141.74 65.9984C141.74 68.55 139.672 70.6184 137.12 70.6184C134.568 70.6184 132.5 68.55 132.5 65.9984C132.5 63.4469 134.568 61.3784 137.12 61.3784Z" fill="#F3F7FF"/>
<path d="M80.03 87.7786C92.241 87.7786 102.14 77.8796 102.14 65.6686C102.14 53.4576 92.241 43.5586 80.03 43.5586C67.819 43.5586 57.92 53.4576 57.92 65.6686C57.92 77.8796 67.819 87.7786 80.03 87.7786Z" fill="#F3F7FF" stroke="#98A2B3" stroke-width="2.5"/>
<path fill-rule="evenodd" clip-rule="evenodd" d="M76.4871 82.8257C77.6479 83.0399 78.8289 83.1513 80.03 83.1597C89.6894 83.1597 97.52 75.3292 97.52 65.6697C97.52 56.0102 89.6894 48.1797 80.03 48.1797C77.5486 48.1797 75.1879 48.6964 73.0497 49.6281C69.3339 51.2473 66.2898 54.1196 64.4513 57.7113C63.2294 60.0986 62.54 62.8036 62.54 65.6697C62.54 68.2701 63.1075 70.7379 64.1254 72.9562C64.8521 74.5398 65.8084 75.9962 66.9516 77.2828" fill="white"/>
<path d="M76.4871 82.8257C77.6479 83.0399 78.8289 83.1513 80.03 83.1597C89.6894 83.1597 97.52 75.3292 97.52 65.6697C97.52 56.0102 89.6894 48.1797 80.03 48.1797C77.5486 48.1797 75.1879 48.6964 73.0497 49.6281C69.3339 51.2473 66.2898 54.1196 64.4513 57.7113C63.2294 60.0986 62.54 62.8036 62.54 65.6697C62.54 68.2701 63.1075 70.7379 64.1254 72.9562C64.8521 74.5398 65.8084 75.9962 66.9516 77.2828" stroke="#98A2B3" stroke-width="2.5" stroke-linecap="round"/>
<path d="M69.0063 79.2461C70.424 80.3984 72.0258 81.3332 73.7606 81.9995" stroke="#98A2B3" stroke-width="2.5" stroke-linecap="round"/>
<path d="M98.18 83.1602L102.14 87.1202" stroke="#98A2B3" stroke-width="2.5"/>
<path fill-rule="evenodd" clip-rule="evenodd" d="M101.5 86.4799C100.251 87.7291 100.251 89.7544 101.5 91.0036L108.816 98.3199C110.065 99.5691 112.091 99.5691 113.34 98.3199C114.589 97.0707 114.589 95.0453 113.34 93.7962L106.024 86.4799C104.775 85.2307 102.749 85.2307 101.5 86.4799Z" fill="#E8F0FE" stroke="#98A2B3" stroke-width="2.5"/>
<path d="M104.78 87.7773L112.04 95.0373" stroke="white" stroke-width="2.5" stroke-linecap="round"/>
<path fill-rule="evenodd" clip-rule="evenodd" d="M75.74 58.08C75.74 65.7347 81.9454 71.94 89.6 71.94C91.1037 71.94 92.5515 71.7006 93.9073 71.2577C91.6943 76.7495 86.3149 80.6261 80.03 80.6261C71.77 80.6261 65.074 73.93 65.074 65.67C65.074 58.1853 70.572 51.9848 77.7497 50.8867C76.4746 52.9844 75.74 55.4464 75.74 58.08Z" fill="#E8F0FE"/>
<path d="M80.36 53.457C79.5196 53.457 78.6984 53.5397 77.9043 53.6974M75.5055 54.4312C70.9906 56.3286 67.82 60.7925 67.82 65.997" stroke="#E4E7EC" stroke-width="2.5" stroke-linecap="round"/>
<path d="M115.456 65.8518H110.06M119.63 60.7188H108.294H119.63ZM124.25 60.7188H122.784H124.25Z" stroke="#E4E7EC" stroke-width="2.5" stroke-linecap="round" stroke-linejoin="round"/>
<path d="M56.056 80.3712H50.66M52.97 74.5781H41.634H52.97ZM37.79 74.5781H35.004H37.79Z" stroke="#E4E7EC" stroke-width="2.5" stroke-linecap="round" stroke-linejoin="round"/>
</svg>
