<svg width="24" height="24" viewBox="0 0 24 24" fill="none" xmlns="http://www.w3.org/2000/svg">
<g clip-path="url(#clip0_6581_228511)">
<path d="M12.4235 23.9948C12.4076 23.9948 12.3917 23.9948 12.3758 23.9948C12.342 23.8894 12.2446 23.8417 12.171 23.7721C10.4911 22.2095 8.92252 20.5395 7.49111 18.7463C6.11139 17.0226 4.86884 15.2095 3.9762 13.1757C3.23067 11.4779 2.8927 9.72638 3.20085 7.87151C3.94439 3.38045 7.84697 0.0723006 12.4255 0.0703125C12.4255 1.24924 12.4255 2.42817 12.4255 3.60709C12.1492 3.61902 11.8728 3.62498 11.5965 3.66276C7.78932 4.17966 5.50503 8.289 7.13326 11.7801C8.16904 13.9987 9.9762 15.122 12.4255 15.1995C12.4255 18.118 12.4255 21.0345 12.4255 23.953C12.4215 23.9669 12.4215 23.9809 12.4235 23.9948Z" fill="#00E678"/>
<path d="M12.4255 3.6074C12.4255 2.42848 12.4255 1.24955 12.4255 0.0706228C13.674 0.0606824 14.8808 0.289311 16.018 0.798257C19.1154 2.18394 20.9901 4.54776 21.6144 7.89567C21.6661 8.17003 21.6482 8.45432 21.7476 8.71873C21.7476 8.83007 21.7476 8.9414 21.7476 9.05273C21.6681 9.27539 21.6701 9.49607 21.7476 9.71873C21.7476 9.81416 21.7476 9.90959 21.7476 10.005C21.6979 10.0189 21.7019 10.0607 21.6999 10.1004C21.674 10.4484 21.6084 10.7883 21.5289 11.1263C21.1472 12.7684 20.4037 14.2515 19.523 15.671C18.008 18.1124 16.1492 20.2794 14.1452 22.3231C13.5925 22.8877 13.0399 23.4563 12.4255 23.9553C12.4255 21.0368 12.4255 18.1203 12.4255 15.2018C12.7496 15.1879 13.0717 15.1621 13.3917 15.1064C16.4494 14.5776 18.5428 11.7486 18.1393 8.66903C17.9067 6.89368 17.02 5.51794 15.5349 4.53384C14.5965 3.91158 13.5488 3.62728 12.4255 3.6074Z" fill="#00D06A"/>
<path d="M21.7475 9.72069C21.67 9.49803 21.668 9.27735 21.7475 9.05469C21.7475 9.27536 21.7475 9.49803 21.7475 9.72069Z" fill="#47484F"/>
<path d="M12.4255 3.60938C13.5487 3.62926 14.5984 3.91355 15.5368 4.53582C17.0219 5.51991 17.9086 6.89566 18.1412 8.67101C18.5428 11.7505 16.4513 14.5796 13.3937 15.1084C13.0736 15.164 12.7515 15.1899 12.4275 15.2038C9.97816 15.1263 8.16901 14.003 7.13522 11.7843C5.50699 8.29327 7.79128 4.18393 11.6004 3.66504C11.8728 3.62727 12.1491 3.6213 12.4255 3.60938ZM13.3957 4.82409C13.3479 4.83403 13.332 4.83204 13.3201 4.83999C12.0736 5.71077 10.8211 6.5716 9.58452 7.45629C9.08552 7.81216 8.82905 8.33303 8.81713 8.94536C8.80122 9.73065 9.13323 10.3469 9.82707 10.7287C10.5428 11.1223 11.2605 11.0646 11.9364 10.6173C12.3519 10.343 12.7535 10.0468 13.163 9.75848C13.2525 9.69486 13.332 9.62926 13.3957 9.52985C13.4911 9.37876 13.6481 9.31713 13.8291 9.37279C14.0259 9.43244 14.0955 9.58552 14.0955 9.77439C14.0955 9.9553 14 10.0805 13.8251 10.1163C13.6859 10.1442 13.5786 10.2157 13.4692 10.2933C12.9503 10.6571 12.4513 11.0567 11.9046 11.3708C11.4354 11.6412 11.2465 11.9692 11.3082 12.508C11.3579 12.9334 11.3181 13.3688 11.3181 13.8082C11.3638 13.7943 11.3797 13.7943 11.3917 13.7863C12.6362 12.9136 13.8887 12.0507 15.1193 11.1581C15.6919 10.7426 15.9483 10.1322 15.8688 9.43045C15.6939 7.87379 14.0557 7.1382 12.7575 8.01892C12.332 8.30719 11.9145 8.60938 11.4931 8.9056C11.4275 8.95132 11.3738 9.00301 11.332 9.0726C11.2306 9.24158 11.0756 9.30321 10.8867 9.24953C10.6899 9.19387 10.6163 9.0388 10.6163 8.85192C10.6143 8.64516 10.7396 8.53383 10.9304 8.49208C11.002 8.47617 11.0656 8.45828 11.1253 8.41653C11.845 7.91156 12.5646 7.40858 13.2863 6.90759C13.3559 6.85788 13.3976 6.80818 13.3976 6.71673C13.3937 6.09248 13.3957 5.46623 13.3957 4.82409Z" fill="#FDFDFE"/>
<path d="M13.3957 4.82031C13.3957 5.46246 13.3937 6.0887 13.3977 6.71296C13.3977 6.80441 13.356 6.8561 13.2864 6.90381C12.5647 7.40481 11.845 7.90978 11.1253 8.41276C11.0657 8.45451 11.0001 8.4724 10.9305 8.4883C10.7416 8.53005 10.6164 8.64139 10.6164 8.84815C10.6184 9.03701 10.69 9.19208 10.8868 9.24576C11.0756 9.29944 11.2327 9.23582 11.3321 9.06882C11.3739 8.99725 11.4275 8.94755 11.4931 8.90182C11.9146 8.60759 12.3321 8.30341 12.7576 8.01514C14.0558 7.13244 15.6959 7.87001 15.8689 9.42667C15.9484 10.1305 15.6919 10.7388 15.1194 11.1543C13.8888 12.047 12.6363 12.9078 11.3917 13.7825C11.3798 13.7905 11.3639 13.7905 11.3182 13.8044C11.3182 13.365 11.358 12.9297 11.3082 12.5042C11.2446 11.9654 11.4355 11.6354 11.9047 11.367C12.4514 11.0509 12.9504 10.6533 13.4693 10.2895C13.5786 10.212 13.686 10.1404 13.8251 10.1126C14.0001 10.0788 14.0975 9.95351 14.0955 9.77061C14.0955 9.58174 14.0259 9.42866 13.8291 9.36902C13.6462 9.31335 13.4912 9.37498 13.3957 9.52608C13.3321 9.62548 13.2526 9.69109 13.1631 9.75471C12.7556 10.041 12.354 10.3372 11.9365 10.6136C11.2585 11.0609 10.5428 11.1185 9.82714 10.7249C9.1333 10.3432 8.80129 9.72488 8.8172 8.94159C8.82912 8.32926 9.08558 7.81037 9.58459 7.45252C10.8212 6.56982 12.0737 5.70699 13.3202 4.83622C13.3321 4.82826 13.348 4.83025 13.3957 4.82031Z" fill="#00E677"/>
</g>
<defs>
<clipPath id="clip0_6581_228511">
<rect width="18.7515" height="24" fill="white" transform="translate(3)"/>
</clipPath>
</defs>
</svg>
