<svg width="16" height="17" viewBox="0 0 16 17" fill="none" xmlns="http://www.w3.org/2000/svg">
    <path fill-opacity="0"
        d="M6.05992 6.49967C6.21665 6.05412 6.52602 5.67841 6.93322 5.4391C7.34042 5.19978 7.81918 5.1123 8.2847 5.19215C8.75022 5.272 9.17246 5.51402 9.47664 5.87536C9.78081 6.2367 9.94729 6.69402 9.94659 7.16634C9.94659 8.49967 7.94659 9.16634 7.94659 9.16634M7.99992 11.833H8.00659M14.6666 8.49967C14.6666 12.1816 11.6818 15.1663 7.99992 15.1663C4.31802 15.1663 1.33325 12.1816 1.33325 8.49967C1.33325 4.81778 4.31802 1.83301 7.99992 1.83301C11.6818 1.83301 14.6666 4.81778 14.6666 8.49967Z"
        stroke="#000005" stroke-width="1.33333" stroke-linecap="round" stroke-linejoin="round" />
</svg>