<svg width="16" height="16" viewBox="0 0 16 16" fill="none" xmlns="http://www.w3.org/2000/svg">
    <g clip-path="url(#clip0_2621_25829)">
        <path
            d="M7.99967 0.708984C3.97905 0.708984 0.708008 3.98003 0.708008 8.00065C0.708008 12.0213 3.97905 15.2923 7.99967 15.2923C12.0203 15.2923 15.2913 12.0213 15.2913 8.00065C15.2913 3.98003 12.0203 0.708984 7.99967 0.708984ZM7.99967 3.69857C8.18715 3.69857 8.37042 3.75416 8.52631 3.85832C8.68219 3.96248 8.80369 4.11052 8.87543 4.28373C8.94718 4.45694 8.96595 4.64754 8.92938 4.83141C8.8928 5.01529 8.80252 5.18419 8.66995 5.31676C8.53738 5.44933 8.36848 5.53961 8.1846 5.57619C8.00073 5.61276 7.81013 5.59399 7.63692 5.52225C7.46371 5.4505 7.31567 5.329 7.21151 5.17312C7.10735 5.01723 7.05176 4.83396 7.05176 4.64648C7.05176 4.39508 7.15163 4.15397 7.3294 3.97621C7.50716 3.79844 7.74827 3.69857 7.99967 3.69857ZM10.333 11.9382H5.95801V10.7715H7.56217V7.56315H6.39551V6.39648H8.72884V10.7715H10.333V11.9382Z"
            fill="#575A65" />
    </g>
    <defs>
        <clipPath id="clip0_2621_25829">
            <rect width="16" height="16" fill="white" />
        </clipPath>
    </defs>
</svg>