<svg width="16" height="16" viewBox="0 0 16 16" fill="none" xmlns="http://www.w3.org/2000/svg">
    <circle cx="8.5" cy="6" r="5" fill="white" />
    <g clip-path="url(#clip0_1714_33454)">
        <path
            d="M8.28283 15.9965C8.27223 15.9965 8.26163 15.9965 8.25102 15.9965C8.22849 15.9263 8.16355 15.8945 8.11451 15.8481C6.99456 14.8063 5.94884 13.693 4.99456 12.4975C4.07475 11.3484 3.24638 10.1397 2.65129 8.78379C2.15427 7.65191 1.92895 6.48425 2.13439 5.24767C2.63008 2.25363 5.2318 0.0482004 8.28416 0.046875C8.28416 0.832826 8.28416 1.61878 8.28416 2.40473C8.09993 2.41268 7.9157 2.41666 7.73147 2.44184C5.19337 2.78644 3.67051 5.526 4.75599 7.85337C5.44652 9.33249 6.65129 10.0813 8.28416 10.133C8.28416 12.0787 8.28416 14.023 8.28416 15.9687C8.28151 15.978 8.28151 15.9872 8.28283 15.9965Z"
            fill="#4848ED" />
        <path
            d="M8.28516 2.40493C8.28516 1.61898 8.28516 0.833033 8.28516 0.0470818C9.1175 0.0404549 9.922 0.192874 10.6801 0.532171C12.7451 1.45596 13.9949 3.03184 14.4111 5.26378C14.4455 5.44668 14.4336 5.63621 14.4999 5.81249C14.4999 5.88671 14.4999 5.96093 14.4999 6.03515C14.4469 6.1836 14.4482 6.33071 14.4999 6.47916C14.4999 6.54277 14.4999 6.60639 14.4999 6.67001C14.4667 6.67929 14.4694 6.70712 14.4681 6.73363C14.4508 6.96557 14.4071 7.19221 14.3541 7.41753C14.0996 8.51229 13.6039 9.50103 13.0168 10.4473C12.0068 12.0749 10.7676 13.5196 9.43161 14.8821C9.06316 15.2585 8.6947 15.6375 8.28516 15.9702C8.28516 14.0246 8.28516 12.0802 8.28516 10.1346C8.50119 10.1253 8.71591 10.108 8.92929 10.0709C10.9677 9.71839 12.3634 7.83237 12.0943 5.77936C11.9392 4.59579 11.3481 3.67863 10.3581 3.02256C9.73247 2.60772 9.034 2.41819 8.28516 2.40493Z"
            fill="#4848ED" />
        <path d="M14.4983 6.47916C14.4466 6.33072 14.4452 6.1836 14.4983 6.03516C14.4983 6.18227 14.4983 6.33072 14.4983 6.47916Z" fill="#47484F" />
    </g>
    <defs>
        <clipPath id="clip0_1714_33454">
            <rect width="12.501" height="16" fill="white" transform="translate(2)" />
        </clipPath>
    </defs>
</svg>