<svg width="25" height="24" viewBox="0 0 25 24" fill="none" xmlns="http://www.w3.org/2000/svg">
<path d="M20.0332 21.4774C14.6168 25.5421 6.81631 24.5939 2.61025 19.3596C-1.59573 14.1253 -0.61453 6.58714 4.80178 2.52251C10.2182 -1.54205 18.0186 -0.593924 22.2246 4.64036C26.4307 9.87463 25.4495 17.4128 20.0332 21.4774Z" fill="#20E682"/>
<path d="M10.2128 21.327L18.1934 15.9255C19.1492 15.2794 19.7416 14.3205 19.9269 13.2951C20.1159 12.266 19.8978 11.1703 19.2292 10.2467C18.2043 8.83137 16.4126 8.23784 14.7737 8.6241C14.3485 8.72591 13.9342 8.89098 13.5453 9.12635C13.4799 9.16499 13.4181 9.20362 13.3527 9.24574L10.2818 11.3249C10.2782 11.3284 10.2782 11.3319 10.2782 11.3354C10.2309 11.5005 10.1329 11.6514 9.98018 11.7568C9.97657 11.7639 9.96568 11.7673 9.95839 11.7744C9.60948 12.0132 9.12981 11.9465 8.86086 11.6304C8.85357 11.6199 8.84636 11.6128 8.83907 11.6058C8.83178 11.5952 8.82817 11.5882 8.82088 11.5811C8.81359 11.5706 8.80999 11.5636 8.80269 11.553C8.79909 11.546 8.7918 11.5355 8.78819 11.5284C8.57011 11.1772 8.67186 10.7172 9.02077 10.4818C9.18429 10.3694 9.37329 10.3273 9.5586 10.3414L14.6283 6.9101V2.6748L6.64393 8.07626C5.69173 8.72243 5.09943 9.68125 4.91043 10.7067C4.72143 11.7358 4.93951 12.8315 5.60817 13.7551C6.63664 15.1704 8.4283 15.7639 10.0673 15.3777C10.4925 15.2759 10.9068 15.1108 11.2921 14.8754C11.3575 14.8368 11.4229 14.7982 11.4847 14.756L14.5592 12.6769C14.5592 12.6734 14.5592 12.6699 14.5628 12.6664C14.6064 12.5013 14.7081 12.3538 14.8572 12.245C14.8645 12.2379 14.8717 12.2344 14.8789 12.2274C15.2315 11.9885 15.7112 12.0553 15.9765 12.3714C15.9838 12.3819 15.991 12.389 15.9983 12.396C16.0056 12.4066 16.0092 12.4136 16.0165 12.4206C16.0237 12.4312 16.0274 12.4382 16.0346 12.4488C16.0419 12.4558 16.0455 12.4663 16.0528 12.4734C16.2672 12.8246 16.1692 13.2811 15.8166 13.52C15.6531 13.6288 15.4641 13.6745 15.2824 13.6604L10.2128 17.0916V21.327Z" fill="#101211"/>
</svg>
