<svg width="20" height="20" viewBox="0 0 20 20" fill="none" xmlns="http://www.w3.org/2000/svg">
    <path d="M3 4C2.46957 4 1.96086 4.21071 1.58579 4.58579C1.21071 4.96086 1 5.46957 1 6V7.161L9.441 11.382C9.61456 11.4688 9.80595 11.514 10 11.514C10.194 11.514 10.3854 11.4688 10.559 11.382L19 7.162V6C19 5.46957 18.7893 4.96086 18.4142 4.58579C18.0391 4.21071 17.5304 4 17 4H3Z"
        fill="currentColor" />
    <path
        d="M19 8.83887L11.23 12.7239C10.8481 12.9148 10.427 13.0143 10 13.0143C9.57301 13.0143 9.1519 12.9148 8.77 12.7239L1 8.83887V13.9999C1 14.5303 1.21071 15.039 1.58579 15.4141C1.96086 15.7892 2.46957 15.9999 3 15.9999H17C17.5304 15.9999 18.0391 15.7892 18.4142 15.4141C18.7893 15.039 19 14.5303 19 13.9999V8.83887Z"
        fill="currentColor" />
</svg>