<svg width="42" height="42" viewBox="0 0 42 42" fill="none" xmlns="http://www.w3.org/2000/svg" fill-opacity="0">
<rect width="42" height="42" rx="12" fill="#FFFCEB" />
<path d="M14 18C14 14.7002 14 13.0503 15.0251 12.0251C16.0503 11 17.7002 11 21 11C24.2998 11 25.9497 11 26.9749 12.0251C28 13.0503 28 14.7002 28 18V24C28 27.2998 28 28.9497 26.9749 29.9749C25.9497 31 24.2998 31 21 31C17.7002 31 16.0503 31 15.0251 29.9749C14 28.9497 14 27.2998 14 24V18Z" stroke="#CBAF02" stroke-width="1.5" stroke-linecap="round" fill-opacity="0"/>
<path d="M20 28H22" stroke="#CBAF02" stroke-width="1.5" stroke-linecap="round" stroke-linejoin="round" fill-opacity="0"/>
<path d="M18 11L18.089 11.534C18.2819 12.6913 18.3783 13.2699 18.7752 13.622C19.1892 13.9893 19.7761 14 21 14C22.2239 14 22.8108 13.9893 23.2248 13.622C23.6217 13.2699 23.7181 12.6913 23.911 11.534L24 11" stroke="#CBAF02" stroke-width="1.5" stroke-linejoin="round" fill-opacity="0"/>
</svg>
