<svg width="21" height="20" viewBox="0 0 21 20" fill="none" xmlns="http://www.w3.org/2000/svg">
    <path
        d="M12.0548 14.8319C11.9042 14.9324 11.7291 14.9901 11.5483 14.9989C11.3675 15.0077 11.1876 14.9672 11.028 14.8818C10.8684 14.7964 10.7349 14.6692 10.6419 14.5139C10.5489 14.3586 10.4997 14.1809 10.4998 13.9999V11.2019L5.05478 14.8319C4.90418 14.9324 4.72912 14.9901 4.54829 14.9989C4.36746 15.0077 4.18764 14.9672 4.02801 14.8818C3.86838 14.7964 3.73493 14.6692 3.6419 14.5139C3.54887 14.3586 3.49975 14.1809 3.49978 13.9999V5.99991C3.49975 5.81886 3.54887 5.64121 3.6419 5.4859C3.73493 5.33058 3.86838 5.20344 4.02801 5.11803C4.18764 5.03262 4.36746 4.99215 4.54829 5.00093C4.72912 5.00972 4.90418 5.06743 5.05478 5.16791L10.4998 8.79791V5.99991C10.4997 5.81886 10.5489 5.64121 10.6419 5.4859C10.7349 5.33058 10.8684 5.20344 11.028 5.11803C11.1876 5.03262 11.3675 4.99215 11.5483 5.00093C11.7291 5.00972 11.9042 5.06743 12.0548 5.16791L18.0548 9.16791C18.1917 9.25923 18.304 9.38295 18.3817 9.52809C18.4594 9.67323 18.5 9.83529 18.5 9.99991C18.5 10.1645 18.4594 10.3266 18.3817 10.4717C18.304 10.6169 18.1917 10.7406 18.0548 10.8319L12.0548 14.8319Z"
        fill="currentColor" />
</svg>