<svg width="179" height="72" viewBox="0 0 179 72" fill="none" xmlns="http://www.w3.org/2000/svg">
    <g filter="url(#filter0_dd_716_52081)">
        <rect x="12" width="155" height="42" rx="8" fill="#0DAC5C" />
        <path fill-rule="evenodd" clip-rule="evenodd"
            d="M31 14.5C30.8674 14.5 30.7402 14.5527 30.6464 14.6464C30.5527 14.7402 30.5 14.8674 30.5 15C30.5 15.1326 30.5527 15.2598 30.6464 15.3536C30.7402 15.4473 30.8674 15.5 31 15.5V26.5H30.5C30.3674 26.5 30.2402 26.5527 30.1464 26.6464C30.0527 26.7402 30 26.8674 30 27C30 27.1326 30.0527 27.2598 30.1464 27.3536C30.2402 27.4473 30.3674 27.5 30.5 27.5H41.5C41.6326 27.5 41.7598 27.4473 41.8536 27.3536C41.9473 27.2598 42 27.1326 42 27C42 26.8674 41.9473 26.7402 41.8536 26.6464C41.7598 26.5527 41.6326 26.5 41.5 26.5H41V15.5C41.1326 15.5 41.2598 15.4473 41.3536 15.3536C41.4473 15.2598 41.5 15.1326 41.5 15C41.5 14.8674 41.4473 14.7402 41.3536 14.6464C41.2598 14.5527 41.1326 14.5 41 14.5H31ZM34 17C33.8674 17 33.7402 17.0527 33.6464 17.1464C33.5527 17.2402 33.5 17.3674 33.5 17.5C33.5 17.6326 33.5527 17.7598 33.6464 17.8536C33.7402 17.9473 33.8674 18 34 18H35C35.1326 18 35.2598 17.9473 35.3536 17.8536C35.4473 17.7598 35.5 17.6326 35.5 17.5C35.5 17.3674 35.4473 17.2402 35.3536 17.1464C35.2598 17.0527 35.1326 17 35 17H34ZM33.5 19.5C33.5 19.3674 33.5527 19.2402 33.6464 19.1464C33.7402 19.0527 33.8674 19 34 19H35C35.1326 19 35.2598 19.0527 35.3536 19.1464C35.4473 19.2402 35.5 19.3674 35.5 19.5C35.5 19.6326 35.4473 19.7598 35.3536 19.8536C35.2598 19.9473 35.1326 20 35 20H34C33.8674 20 33.7402 19.9473 33.6464 19.8536C33.5527 19.7598 33.5 19.6326 33.5 19.5ZM34 21C33.8674 21 33.7402 21.0527 33.6464 21.1464C33.5527 21.2402 33.5 21.3674 33.5 21.5C33.5 21.6326 33.5527 21.7598 33.6464 21.8536C33.7402 21.9473 33.8674 22 34 22H35C35.1326 22 35.2598 21.9473 35.3536 21.8536C35.4473 21.7598 35.5 21.6326 35.5 21.5C35.5 21.3674 35.4473 21.2402 35.3536 21.1464C35.2598 21.0527 35.1326 21 35 21H34ZM36.5 17.5C36.5 17.3674 36.5527 17.2402 36.6464 17.1464C36.7402 17.0527 36.8674 17 37 17H38C38.1326 17 38.2598 17.0527 38.3536 17.1464C38.4473 17.2402 38.5 17.3674 38.5 17.5C38.5 17.6326 38.4473 17.7598 38.3536 17.8536C38.2598 17.9473 38.1326 18 38 18H37C36.8674 18 36.7402 17.9473 36.6464 17.8536C36.5527 17.7598 36.5 17.6326 36.5 17.5ZM37 19C36.8674 19 36.7402 19.0527 36.6464 19.1464C36.5527 19.2402 36.5 19.3674 36.5 19.5C36.5 19.6326 36.5527 19.7598 36.6464 19.8536C36.7402 19.9473 36.8674 20 37 20H38C38.1326 20 38.2598 19.9473 38.3536 19.8536C38.4473 19.7598 38.5 19.6326 38.5 19.5C38.5 19.3674 38.4473 19.2402 38.3536 19.1464C38.2598 19.0527 38.1326 19 38 19H37ZM36.5 21.5C36.5 21.3674 36.5527 21.2402 36.6464 21.1464C36.7402 21.0527 36.8674 21 37 21H38C38.1326 21 38.2598 21.0527 38.3536 21.1464C38.4473 21.2402 38.5 21.3674 38.5 21.5C38.5 21.6326 38.4473 21.7598 38.3536 21.8536C38.2598 21.9473 38.1326 22 38 22H37C36.8674 22 36.7402 21.9473 36.6464 21.8536C36.5527 21.7598 36.5 21.6326 36.5 21.5ZM34 26V24.5C34 24.3674 34.0527 24.2402 34.1464 24.1464C34.2402 24.0527 34.3674 24 34.5 24H37.5C37.6326 24 37.7598 24.0527 37.8536 24.1464C37.9473 24.2402 38 24.3674 38 24.5V26C38 26.1326 37.9473 26.2598 37.8536 26.3536C37.7598 26.4473 37.6326 26.5 37.5 26.5H34.5C34.3674 26.5 34.2402 26.4473 34.1464 26.3536C34.0527 26.2598 34 26.1326 34 26Z"
            fill="white" />
        <path
            d="M54.8457 21.0508H50.2402V20.1367H54.8457V21.0508ZM50.416 25H49.2793V16.4688H50.416V25ZM55.8418 25H54.7051V16.4688H55.8418V25ZM60.3125 25.1172C59.7227 25.1172 59.209 24.9863 58.7715 24.7246C58.3379 24.459 58 24.0957 57.7578 23.6348C57.5195 23.1738 57.4004 22.6465 57.4004 22.0527V21.8008C57.4004 21.1133 57.5312 20.5273 57.793 20.043C58.0586 19.5547 58.4023 19.1836 58.8242 18.9297C59.25 18.6719 59.6992 18.543 60.1719 18.543C60.7812 18.543 61.2773 18.6797 61.6602 18.9531C62.0469 19.2227 62.3301 19.5918 62.5098 20.0605C62.6934 20.5254 62.7852 21.0527 62.7852 21.6426V22.1289H58.0508V21.25H61.6895V21.168C61.6738 20.8867 61.6172 20.6133 61.5195 20.3477C61.4219 20.0781 61.2656 19.8574 61.0508 19.6855C60.8359 19.5098 60.543 19.4219 60.1719 19.4219C59.8438 19.4219 59.5527 19.5156 59.2988 19.7031C59.0488 19.8867 58.8516 20.1562 58.707 20.5117C58.5664 20.8633 58.4961 21.293 58.4961 21.8008V22.0527C58.4961 22.4551 58.5703 22.8223 58.7188 23.1543C58.8672 23.4824 59.082 23.7461 59.3633 23.9453C59.6445 24.1406 59.9805 24.2383 60.3711 24.2383C60.7539 24.2383 61.0781 24.1602 61.3438 24.0039C61.6094 23.8477 61.8418 23.6387 62.041 23.377L62.7031 23.8926C62.5 24.2051 62.207 24.4883 61.8242 24.7422C61.4453 24.9922 60.9414 25.1172 60.3125 25.1172ZM67.7891 20.6523C67.7891 20.2734 67.6758 19.9727 67.4492 19.75C67.2266 19.5234 66.8965 19.4102 66.459 19.4102C66.1895 19.4102 65.9512 19.457 65.7441 19.5508C65.541 19.6445 65.3828 19.7676 65.2695 19.9199C65.1562 20.0723 65.0996 20.2383 65.0996 20.418H64.0039C64.0039 20.1133 64.1074 19.8184 64.3145 19.5332C64.5215 19.2441 64.8125 19.0078 65.1875 18.8242C65.5664 18.6367 66.0117 18.543 66.5234 18.543C66.9844 18.543 67.3926 18.6211 67.748 18.7773C68.1035 18.9336 68.3809 19.1699 68.5801 19.4863C68.7832 19.7988 68.8848 20.1914 68.8848 20.6641V23.6172C68.8848 23.8281 68.9023 24.0527 68.9375 24.291C68.9766 24.5293 69.0332 24.7344 69.1074 24.9062V25H67.9648C67.9102 24.875 67.8672 24.709 67.8359 24.502C67.8047 24.291 67.7891 24.0957 67.7891 23.916V20.6523ZM67.9883 21.918H66.8984C66.2812 21.918 65.8047 22.0156 65.4688 22.2109C65.1328 22.4062 64.9648 22.6992 64.9648 23.0898C64.9648 23.3945 65.0664 23.6523 65.2695 23.8633C65.4766 24.0742 65.7773 24.1797 66.1719 24.1797C66.5039 24.1797 66.7969 24.1094 67.0508 23.9688C67.3047 23.8281 67.5059 23.6543 67.6543 23.4473C67.8027 23.2402 67.8828 23.041 67.8945 22.8496L68.3633 23.3711C68.3359 23.5352 68.2617 23.7168 68.1406 23.916C68.0195 24.1152 67.8574 24.3066 67.6543 24.4902C67.4551 24.6699 67.2168 24.8203 66.9395 24.9414C66.666 25.0586 66.3574 25.1172 66.0137 25.1172C65.584 25.1172 65.207 25.0352 64.8828 24.8711C64.5625 24.7031 64.3125 24.4766 64.1328 24.1914C63.957 23.9062 63.8691 23.5898 63.8691 23.2422C63.8691 22.5586 64.127 22.041 64.6426 21.6895C65.1582 21.334 65.8516 21.1562 66.7227 21.1562H67.9766L67.9883 21.918ZM74.5859 16H75.6816V25H74.6797L74.5859 23.7695V16ZM70.3262 21.7773C70.3262 21.1328 70.4297 20.5684 70.6367 20.084C70.8477 19.5957 71.1406 19.2168 71.5156 18.9473C71.8906 18.6777 72.3301 18.543 72.834 18.543C73.3652 18.543 73.8086 18.666 74.1641 18.9121C74.5195 19.1543 74.7969 19.5 74.9961 19.9492C75.1992 20.3984 75.3301 20.9336 75.3887 21.5547V22.123C75.3301 22.7363 75.2012 23.2676 75.002 23.7168C74.8027 24.1621 74.5234 24.5078 74.1641 24.7539C73.8086 24.9961 73.3613 25.1172 72.8223 25.1172C72.3262 25.1172 71.8906 24.9785 71.5156 24.7012C71.1406 24.4199 70.8477 24.0371 70.6367 23.5527C70.4297 23.0684 70.3262 22.5176 70.3262 21.9004V21.7773ZM71.4219 21.9004C71.4219 22.3223 71.4785 22.707 71.5918 23.0547C71.709 23.4023 71.8906 23.6816 72.1367 23.8926C72.3828 24.0996 72.7012 24.2031 73.0918 24.2031C73.4512 24.2031 73.7461 24.127 73.9766 23.9746C74.2109 23.8223 74.3984 23.6211 74.5391 23.3711C74.6797 23.1211 74.7891 22.8496 74.8672 22.5566V21.1328C74.8203 20.918 74.752 20.7109 74.6621 20.5117C74.5762 20.3086 74.4629 20.1289 74.3223 19.9727C74.1855 19.8125 74.0156 19.6855 73.8125 19.5918C73.6133 19.498 73.377 19.4512 73.1035 19.4512C72.709 19.4512 72.3867 19.5566 72.1367 19.7676C71.8906 19.9785 71.709 20.2617 71.5918 20.6172C71.4785 20.9688 71.4219 21.3555 71.4219 21.7773V21.9004ZM80.0586 21.7656C80.0586 21.1523 80.1758 20.6035 80.4102 20.1191C80.6445 19.6348 80.9766 19.252 81.4062 18.9707C81.8359 18.6855 82.3457 18.543 82.9355 18.543C83.5332 18.543 84.0488 18.6855 84.4824 18.9707C84.916 19.252 85.248 19.6348 85.4785 20.1191C85.7129 20.6035 85.8301 21.1523 85.8301 21.7656V21.9004C85.8301 22.5098 85.7129 23.0586 85.4785 23.5469C85.248 24.0312 84.916 24.4141 84.4824 24.6953C84.0527 24.9766 83.541 25.1172 82.9473 25.1172C82.3535 25.1172 81.8398 24.9766 81.4062 24.6953C80.9766 24.4141 80.6445 24.0312 80.4102 23.5469C80.1758 23.0586 80.0586 22.5098 80.0586 21.9004V21.7656ZM81.1543 21.9004C81.1543 22.3184 81.2207 22.7051 81.3535 23.0605C81.4863 23.416 81.6836 23.7012 81.9453 23.916C82.2109 24.1309 82.5449 24.2383 82.9473 24.2383C83.3457 24.2383 83.6758 24.1309 83.9375 23.916C84.2031 23.7012 84.4023 23.416 84.5352 23.0605C84.668 22.7051 84.7344 22.3184 84.7344 21.9004V21.7656C84.7344 21.3477 84.668 20.9609 84.5352 20.6055C84.4023 20.25 84.2031 19.9648 83.9375 19.75C83.6719 19.5312 83.3379 19.4219 82.9355 19.4219C82.541 19.4219 82.2109 19.5312 81.9453 19.75C81.6797 19.9648 81.4805 20.25 81.3477 20.6055C81.2188 20.9609 81.1543 21.3477 81.1543 21.7656V21.9004ZM87.7285 25V17.9863C87.7285 17.3066 87.9141 16.7852 88.2852 16.4219C88.6602 16.0586 89.1719 15.877 89.8203 15.877C89.9453 15.877 90.0703 15.8848 90.1953 15.9004C90.3203 15.916 90.4434 15.9395 90.5645 15.9707L90.5059 16.8438C90.4238 16.8281 90.3301 16.8164 90.2246 16.8086C90.123 16.8008 90.0215 16.7969 89.9199 16.7969C89.5762 16.7969 89.3066 16.9004 89.1113 17.1074C88.9199 17.3105 88.8242 17.6035 88.8242 17.9863V25H87.7285ZM90.1719 19.4863H86.7324V18.6602H90.1719V19.4863ZM91.9004 25V17.9863C91.9004 17.3066 92.0859 16.7852 92.457 16.4219C92.832 16.0586 93.3438 15.877 93.9922 15.877C94.1172 15.877 94.2422 15.8848 94.3672 15.9004C94.4922 15.916 94.6152 15.9395 94.7363 15.9707L94.6777 16.8438C94.5957 16.8281 94.502 16.8164 94.3965 16.8086C94.2949 16.8008 94.1934 16.7969 94.0918 16.7969C93.748 16.7969 93.4785 16.9004 93.2832 17.1074C93.0918 17.3105 92.9961 17.6035 92.9961 17.9863V25H91.9004ZM94.3438 19.4863H90.9043V18.6602H94.3438V19.4863ZM96.7285 25H95.6328V18.6602H96.7285V25ZM95.5508 16.9727C95.5508 16.8008 95.6035 16.6543 95.709 16.5332C95.8184 16.4121 95.9785 16.3516 96.1895 16.3516C96.4004 16.3516 96.5605 16.4121 96.6699 16.5332C96.7832 16.6543 96.8398 16.8008 96.8398 16.9727C96.8398 17.1406 96.7832 17.2852 96.6699 17.4062C96.5605 17.5234 96.4004 17.582 96.1895 17.582C95.9785 17.582 95.8184 17.5234 95.709 17.4062C95.6035 17.2852 95.5508 17.1406 95.5508 16.9727ZM101 24.2383C101.258 24.2383 101.496 24.1855 101.715 24.0801C101.934 23.9707 102.113 23.8223 102.254 23.6348C102.395 23.4473 102.475 23.2344 102.494 22.9961H103.531C103.512 23.3711 103.385 23.7207 103.15 24.0449C102.916 24.3652 102.611 24.625 102.236 24.8242C101.861 25.0195 101.449 25.1172 101 25.1172C100.363 25.1172 99.8359 24.9727 99.418 24.6836C99 24.3906 98.6875 24.0039 98.4805 23.5234C98.2773 23.043 98.1758 22.5195 98.1758 21.9531V21.707C98.1758 21.1367 98.2793 20.6133 98.4863 20.1367C98.6934 19.6562 99.0059 19.2715 99.4238 18.9824C99.8418 18.6895 100.367 18.543 101 18.543C101.496 18.543 101.93 18.6445 102.301 18.8477C102.676 19.0469 102.969 19.3203 103.18 19.668C103.395 20.0117 103.512 20.4023 103.531 20.8398H102.494C102.475 20.5781 102.4 20.3398 102.271 20.125C102.146 19.9102 101.975 19.7402 101.756 19.6152C101.541 19.4863 101.289 19.4219 101 19.4219C100.559 19.4219 100.211 19.5352 99.957 19.7617C99.707 19.9883 99.5293 20.2773 99.4238 20.6289C99.3223 20.9766 99.2715 21.3359 99.2715 21.707V21.9531C99.2715 22.3242 99.3223 22.6855 99.4238 23.0371C99.5254 23.3887 99.7012 23.6777 99.9512 23.9043C100.205 24.127 100.555 24.2383 101 24.2383ZM107.387 25.1172C106.797 25.1172 106.283 24.9863 105.846 24.7246C105.412 24.459 105.074 24.0957 104.832 23.6348C104.594 23.1738 104.475 22.6465 104.475 22.0527V21.8008C104.475 21.1133 104.605 20.5273 104.867 20.043C105.133 19.5547 105.477 19.1836 105.898 18.9297C106.324 18.6719 106.773 18.543 107.246 18.543C107.855 18.543 108.352 18.6797 108.734 18.9531C109.121 19.2227 109.404 19.5918 109.584 20.0605C109.768 20.5254 109.859 21.0527 109.859 21.6426V22.1289H105.125V21.25H108.764V21.168C108.748 20.8867 108.691 20.6133 108.594 20.3477C108.496 20.0781 108.34 19.8574 108.125 19.6855C107.91 19.5098 107.617 19.4219 107.246 19.4219C106.918 19.4219 106.627 19.5156 106.373 19.7031C106.123 19.8867 105.926 20.1562 105.781 20.5117C105.641 20.8633 105.57 21.293 105.57 21.8008V22.0527C105.57 22.4551 105.645 22.8223 105.793 23.1543C105.941 23.4824 106.156 23.7461 106.438 23.9453C106.719 24.1406 107.055 24.2383 107.445 24.2383C107.828 24.2383 108.152 24.1602 108.418 24.0039C108.684 23.8477 108.916 23.6387 109.115 23.377L109.777 23.8926C109.574 24.2051 109.281 24.4883 108.898 24.7422C108.52 24.9922 108.016 25.1172 107.387 25.1172ZM115.156 21.0039L115.145 20.1074H117.102C117.586 20.1074 117.977 19.9863 118.273 19.7441C118.57 19.502 118.719 19.1641 118.719 18.7305C118.719 18.2617 118.582 17.9219 118.309 17.7109C118.039 17.4961 117.627 17.3887 117.072 17.3887H115.408V25H114.271V16.4688H117.072C117.943 16.4688 118.625 16.6504 119.117 17.0137C119.609 17.373 119.855 17.9492 119.855 18.7422C119.855 19.0938 119.766 19.4121 119.586 19.6973C119.406 19.9785 119.154 20.209 118.83 20.3887C118.51 20.5684 118.137 20.6836 117.711 20.7344L117.312 21.0039H115.156ZM114.705 25L115.355 24.0859H117.26C117.795 24.0859 118.209 23.9473 118.502 23.6699C118.795 23.3926 118.941 23.0195 118.941 22.5508C118.941 22.2344 118.885 21.9609 118.771 21.7305C118.658 21.4961 118.482 21.3164 118.244 21.1914C118.006 21.0664 117.695 21.0039 117.312 21.0039H115.701L115.713 20.1074H117.916L118.156 20.4355C118.566 20.4707 118.914 20.5859 119.199 20.7812C119.484 20.9766 119.701 21.2266 119.85 21.5312C120.002 21.8359 120.078 22.1719 120.078 22.5391C120.078 23.3398 119.82 23.9512 119.305 24.373C118.793 24.791 118.111 25 117.26 25H114.705ZM122.674 25H121.578V18.6602H122.645L122.674 19.6562V25ZM124.648 19.627C124.555 19.6074 124.467 19.5957 124.385 19.5918C124.307 19.584 124.217 19.5801 124.115 19.5801C123.783 19.5801 123.502 19.6484 123.271 19.7852C123.045 19.9219 122.869 20.1113 122.744 20.3535C122.619 20.5918 122.541 20.8652 122.51 21.1738L122.199 21.3496C122.199 20.8379 122.268 20.3711 122.404 19.9492C122.541 19.5234 122.754 19.1836 123.043 18.9297C123.336 18.6719 123.711 18.543 124.168 18.543C124.242 18.543 124.33 18.5527 124.432 18.5723C124.537 18.5879 124.609 18.6055 124.648 18.625V19.627ZM129.195 20.6523C129.195 20.2734 129.082 19.9727 128.855 19.75C128.633 19.5234 128.303 19.4102 127.865 19.4102C127.596 19.4102 127.357 19.457 127.15 19.5508C126.947 19.6445 126.789 19.7676 126.676 19.9199C126.562 20.0723 126.506 20.2383 126.506 20.418H125.41C125.41 20.1133 125.514 19.8184 125.721 19.5332C125.928 19.2441 126.219 19.0078 126.594 18.8242C126.973 18.6367 127.418 18.543 127.93 18.543C128.391 18.543 128.799 18.6211 129.154 18.7773C129.51 18.9336 129.787 19.1699 129.986 19.4863C130.189 19.7988 130.291 20.1914 130.291 20.6641V23.6172C130.291 23.8281 130.309 24.0527 130.344 24.291C130.383 24.5293 130.439 24.7344 130.514 24.9062V25H129.371C129.316 24.875 129.273 24.709 129.242 24.502C129.211 24.291 129.195 24.0957 129.195 23.916V20.6523ZM129.395 21.918H128.305C127.688 21.918 127.211 22.0156 126.875 22.2109C126.539 22.4062 126.371 22.6992 126.371 23.0898C126.371 23.3945 126.473 23.6523 126.676 23.8633C126.883 24.0742 127.184 24.1797 127.578 24.1797C127.91 24.1797 128.203 24.1094 128.457 23.9688C128.711 23.8281 128.912 23.6543 129.061 23.4473C129.209 23.2402 129.289 23.041 129.301 22.8496L129.77 23.3711C129.742 23.5352 129.668 23.7168 129.547 23.916C129.426 24.1152 129.264 24.3066 129.061 24.4902C128.861 24.6699 128.623 24.8203 128.346 24.9414C128.072 25.0586 127.764 25.1172 127.42 25.1172C126.99 25.1172 126.613 25.0352 126.289 24.8711C125.969 24.7031 125.719 24.4766 125.539 24.1914C125.363 23.9062 125.275 23.5898 125.275 23.2422C125.275 22.5586 125.533 22.041 126.049 21.6895C126.564 21.334 127.258 21.1562 128.129 21.1562H129.383L129.395 21.918ZM133.092 25H131.996V18.6602H133.033L133.092 20.0137V25ZM132.377 21.5664C132.385 20.9883 132.496 20.4727 132.711 20.0195C132.926 19.5625 133.225 19.2031 133.607 18.9414C133.994 18.6758 134.443 18.543 134.955 18.543C135.373 18.543 135.732 18.6211 136.033 18.7773C136.338 18.9297 136.572 19.1738 136.736 19.5098C136.904 19.8457 136.988 20.291 136.988 20.8457V25H135.893V20.834C135.893 20.502 135.844 20.2344 135.746 20.0312C135.652 19.8281 135.512 19.6816 135.324 19.5918C135.137 19.498 134.906 19.4512 134.633 19.4512C134.363 19.4512 134.119 19.5078 133.9 19.6211C133.682 19.7344 133.492 19.8906 133.332 20.0898C133.172 20.2891 133.049 20.5176 132.963 20.7754C132.877 21.0293 132.834 21.2988 132.834 21.584L132.377 21.5664ZM141.172 24.2383C141.43 24.2383 141.668 24.1855 141.887 24.0801C142.105 23.9707 142.285 23.8223 142.426 23.6348C142.566 23.4473 142.646 23.2344 142.666 22.9961H143.703C143.684 23.3711 143.557 23.7207 143.322 24.0449C143.088 24.3652 142.783 24.625 142.408 24.8242C142.033 25.0195 141.621 25.1172 141.172 25.1172C140.535 25.1172 140.008 24.9727 139.59 24.6836C139.172 24.3906 138.859 24.0039 138.652 23.5234C138.449 23.043 138.348 22.5195 138.348 21.9531V21.707C138.348 21.1367 138.451 20.6133 138.658 20.1367C138.865 19.6562 139.178 19.2715 139.596 18.9824C140.014 18.6895 140.539 18.543 141.172 18.543C141.668 18.543 142.102 18.6445 142.473 18.8477C142.848 19.0469 143.141 19.3203 143.352 19.668C143.566 20.0117 143.684 20.4023 143.703 20.8398H142.666C142.646 20.5781 142.572 20.3398 142.443 20.125C142.318 19.9102 142.146 19.7402 141.928 19.6152C141.713 19.4863 141.461 19.4219 141.172 19.4219C140.73 19.4219 140.383 19.5352 140.129 19.7617C139.879 19.9883 139.701 20.2773 139.596 20.6289C139.494 20.9766 139.443 21.3359 139.443 21.707V21.9531C139.443 22.3242 139.494 22.6855 139.596 23.0371C139.697 23.3887 139.873 23.6777 140.123 23.9043C140.377 24.127 140.727 24.2383 141.172 24.2383ZM146.018 25H144.922V16H146.018V25ZM145.303 21.5664C145.311 20.9883 145.422 20.4727 145.637 20.0195C145.852 19.5625 146.15 19.2031 146.533 18.9414C146.92 18.6758 147.369 18.543 147.881 18.543C148.299 18.543 148.658 18.6211 148.959 18.7773C149.264 18.9297 149.498 19.1738 149.662 19.5098C149.83 19.8457 149.914 20.291 149.914 20.8457V25H148.818V20.834C148.818 20.502 148.77 20.2344 148.672 20.0312C148.578 19.8281 148.438 19.6816 148.25 19.5918C148.062 19.498 147.832 19.4512 147.559 19.4512C147.289 19.4512 147.045 19.5078 146.826 19.6211C146.607 19.7344 146.418 19.8906 146.258 20.0898C146.098 20.2891 145.975 20.5176 145.889 20.7754C145.803 21.0293 145.76 21.2988 145.76 21.584L145.303 21.5664Z"
            fill="white" />
        <path d="M95.5711 39.4853C96.462 39.4853 96.9081 40.5624 96.2782 41.1924L90.2071 47.2635C89.8166 47.654 89.1834 47.654 88.7929 47.2635L82.7218 41.1924C82.0919 40.5624 82.538 39.4853 83.4289 39.4853H95.5711Z" fill="#0DAC5C" />
    </g>
    <defs>
        <filter id="filter0_dd_716_52081" x="0" y="0" width="179" height="72" filterUnits="userSpaceOnUse" color-interpolation-filters="sRGB">
            <feFlood flood-opacity="0" result="BackgroundImageFix" />
            <feColorMatrix in="SourceAlpha" type="matrix" values="0 0 0 0 0 0 0 0 0 0 0 0 0 0 0 0 0 0 127 0" result="hardAlpha" />
            <feMorphology radius="2" operator="erode" in="SourceAlpha" result="effect1_dropShadow_716_52081" />
            <feOffset dy="4" />
            <feGaussianBlur stdDeviation="3" />
            <feColorMatrix type="matrix" values="0 0 0 0 0.0627451 0 0 0 0 0.0941176 0 0 0 0 0.156863 0 0 0 0.03 0" />
            <feBlend mode="normal" in2="BackgroundImageFix" result="effect1_dropShadow_716_52081" />
            <feColorMatrix in="SourceAlpha" type="matrix" values="0 0 0 0 0 0 0 0 0 0 0 0 0 0 0 0 0 0 127 0" result="hardAlpha" />
            <feMorphology radius="4" operator="erode" in="SourceAlpha" result="effect2_dropShadow_716_52081" />
            <feOffset dy="12" />
            <feGaussianBlur stdDeviation="8" />
            <feColorMatrix type="matrix" values="0 0 0 0 0.0627451 0 0 0 0 0.0941176 0 0 0 0 0.156863 0 0 0 0.08 0" />
            <feBlend mode="normal" in2="effect1_dropShadow_716_52081" result="effect2_dropShadow_716_52081" />
            <feBlend mode="normal" in="SourceGraphic" in2="effect2_dropShadow_716_52081" result="shape" />
        </filter>
    </defs>
</svg>