<svg width="16" height="16" viewBox="0 0 16 16" fill="none" xmlns="http://www.w3.org/2000/svg">
    <g clip-path="url(#clip0_5001_131792)">
        <path opacity="0.4"
            d="M14.5 7.28352C14.5 3.73937 11.5169 0.833008 7.99996 0.833008C6.82433 0.833008 5.70837 1.15775 4.74355 1.72251C4.55695 1.83174 4.46364 1.88636 4.45111 1.98381C4.43858 2.08127 4.5183 2.16099 4.67774 2.32043L12.9883 10.631C13.15 10.7927 13.2309 10.8736 13.3286 10.8607C13.4264 10.8479 13.4816 10.7524 13.5921 10.5613C14.1504 9.59544 14.5 8.50517 14.5 7.28352Z"
            fill="currentColor" />
        <path
            d="M1.5 7.28418C1.5 9.09916 2.26791 10.6164 3.34459 11.8687C4.41664 13.1155 5.81223 14.1211 7.11883 14.9299L7.12742 14.9352L7.13621 14.9402C7.3997 15.0889 7.69736 15.167 8 15.167C8.30264 15.167 8.6003 15.0889 8.86379 14.9402L8.87146 14.9359L8.87897 14.9313C9.93918 14.2825 11.0546 13.4989 12.0093 12.5617C12.1386 12.4347 12.2033 12.3712 12.2037 12.2878C12.2041 12.2044 12.1385 12.1388 12.0072 12.0076L3.39381 3.39414C3.25032 3.25065 3.17857 3.17891 3.08805 3.18492C2.99752 3.19093 2.93841 3.26824 2.82019 3.42287C1.99529 4.50175 1.5 5.84002 1.5 7.28418Z"
            fill="currentColor" />
        <path fill-rule="evenodd" clip-rule="evenodd"
            d="M0.861888 0.861766C1.12224 0.601417 1.54435 0.601417 1.8047 0.861766L15.138 14.1951C15.3984 14.4554 15.3984 14.8776 15.138 15.1379C14.8777 15.3983 14.4556 15.3983 14.1952 15.1379L0.861888 1.80458C0.601539 1.54423 0.601539 1.12212 0.861888 0.861766Z" fill="currentColor" />
    </g>
    <defs>
        <clipPath id="clip0_5001_131792">
            <rect width="16" height="16" fill="currentColor" />
        </clipPath>
    </defs>
</svg>