<svg width="16" height="16" viewBox="0 0 16 16" fill="none" xmlns="http://www.w3.org/2000/svg">
    <path fill-rule="evenodd" clip-rule="evenodd"
        d="M8 1.8335C5.01483 1.8335 2.5 4.34588 2.5 7.39143C2.5 10.5116 5.07168 12.5965 7.21805 13.9517L7.22668 13.9572L7.23551 13.9623C7.46811 14.0962 7.73159 14.1668 8 14.1668C8.26841 14.1668 8.53189 14.0962 8.76449 13.9623L8.7722 13.9578L8.77974 13.9531C10.9345 12.6082 13.5 10.501 13.5 7.39143C13.5 4.34588 10.9852 1.8335 8 1.8335ZM8 5.00016C6.71134 5.00016 5.66667 6.04483 5.66667 7.3335C5.66667 8.62216 6.71134 9.66683 8 9.66683C9.28866 9.66683 10.3333 8.62216 10.3333 7.3335C10.3333 6.04483 9.28866 5.00016 8 5.00016Z"
        fill="currentColor" />
    <path fill-rule="evenodd" clip-rule="evenodd"
        d="M1.8214 4.05576C2.15889 4.20296 2.31315 4.59588 2.16595 4.93336C1.50029 6.45953 1.50029 8.20747 2.16595 9.73364C2.31315 10.0711 2.15889 10.464 1.82141 10.6112C1.48392 10.7584 1.09101 10.6042 0.943807 10.2667C0.129896 8.40062 0.129896 6.26638 0.943807 4.40031C1.09101 4.06282 1.48392 3.90857 1.8214 4.05576ZM14.1787 4.05576C14.5162 3.90857 14.9091 4.06282 15.0563 4.40031C15.8702 6.26638 15.8702 8.40062 15.0563 10.2667C14.9091 10.6042 14.5162 10.7584 14.1787 10.6112C13.8412 10.464 13.6869 10.0711 13.8341 9.73364C14.4998 8.20748 14.4998 6.45953 13.8341 4.93336C13.6869 4.59588 13.8412 4.20296 14.1787 4.05576Z"
        fill="currentColor" />
</svg>