<svg width="33" height="32" viewBox="0 0 33 32" fill="none" xmlns="http://www.w3.org/2000/svg">
    <path fill-rule="evenodd" clip-rule="evenodd"
        d="M3.5 16C3.5 8.82 9.32 3 16.5 3C23.68 3 29.5 8.82 29.5 16C29.5 23.18 23.68 29 16.5 29C9.32 29 3.5 23.18 3.5 16ZM12.5 11C12.2348 11 11.9804 11.1054 11.7929 11.2929C11.6054 11.4804 11.5 11.7348 11.5 12V20C11.5 20.552 11.948 21 12.5 21H13.5C13.7652 21 14.0196 20.8946 14.2071 20.7071C14.3946 20.5196 14.5 20.2652 14.5 20V12C14.5 11.7348 14.3946 11.4804 14.2071 11.2929C14.0196 11.1054 13.7652 11 13.5 11H12.5ZM19.5 11C19.2348 11 18.9804 11.1054 18.7929 11.2929C18.6054 11.4804 18.5 11.7348 18.5 12V20C18.5 20.552 18.948 21 19.5 21H20.5C20.7652 21 21.0196 20.8946 21.2071 20.7071C21.3946 20.5196 21.5 20.2652 21.5 20V12C21.5 11.7348 21.3946 11.4804 21.2071 11.2929C21.0196 11.1054 20.7652 11 20.5 11H19.5Z"
        fill="currentColor" />
</svg>