<svg width="43" height="44" viewBox="0 0 43 44" fill="none" xmlns="http://www.w3.org/2000/svg">
<circle cx="21.4883" cy="22.1074" r="16" fill="#F4F5F4"/>
<path fill-rule="evenodd" clip-rule="evenodd" d="M27.4883 18.9646V27.1074C27.4883 27.5621 27.3077 27.9981 26.9862 28.3196C26.6647 28.6411 26.2287 28.8217 25.774 28.8217H24.9169V27.9646H25.774C26.0013 27.9646 26.2193 27.8743 26.3801 27.7135C26.5408 27.5528 26.6311 27.3347 26.6311 27.1074V18.9646H24.9169C24.5759 18.9646 24.2488 18.8291 24.0077 18.588C23.7666 18.3469 23.6311 18.0198 23.6311 17.6789V15.9646H18.9169C18.6895 15.9646 18.4715 16.0549 18.3108 16.2156C18.15 16.3764 18.0597 16.5944 18.0597 16.8217V24.536H17.2026V16.8217C17.2026 16.3671 17.3832 15.931 17.7047 15.6095C18.0262 15.288 18.4622 15.1074 18.9169 15.1074H23.6311L27.4883 18.9646ZM16.8597 25.2646H15.4883V28.6923H16.1663V27.542H16.8546C17.1006 27.542 17.3097 27.4931 17.482 27.3937C17.656 27.2934 17.7889 27.158 17.8789 26.9874C17.9723 26.8084 18.0197 26.609 18.0169 26.4071C18.0169 26.1928 17.9714 25.9991 17.8814 25.8268C17.7919 25.6556 17.655 25.5137 17.4871 25.418C17.3157 25.3151 17.1074 25.2646 16.8597 25.2646ZM17.3269 26.4071C17.3299 26.5201 17.3049 26.632 17.254 26.7328C17.2083 26.8207 17.1372 26.8927 17.05 26.9394C16.9502 26.9888 16.8398 27.0129 16.7286 27.0097H16.1637V25.8046H16.7294C16.9163 25.8046 17.0629 25.856 17.1683 25.9597C17.2737 26.0643 17.3269 26.2134 17.3269 26.4071ZM18.37 25.2646V28.6923H19.6214C19.9651 28.6923 20.2506 28.6237 20.4769 28.4891C20.7058 28.3521 20.8847 28.1451 20.9869 27.8986C21.0983 27.6414 21.1549 27.3311 21.1549 26.9694C21.1549 26.6094 21.0991 26.3026 20.9869 26.048C20.8859 25.8043 20.7088 25.5999 20.482 25.4651C20.2557 25.3314 19.9686 25.2646 19.6206 25.2646H18.37ZM19.048 25.8174H19.5306C19.7431 25.8174 19.9163 25.8603 20.0526 25.9477C20.194 26.0402 20.3008 26.1771 20.356 26.3368C20.4237 26.5091 20.4571 26.7243 20.4571 26.9823C20.4598 27.1532 20.4402 27.3238 20.3989 27.4897C20.3683 27.6205 20.3111 27.7437 20.2309 27.8514C20.1563 27.9475 20.0575 28.0221 19.9446 28.0674C19.8123 28.1169 19.6718 28.1408 19.5306 28.1377H19.048V25.8174ZM22.2563 27.3286V28.6923H21.5791V25.2646H23.7631V25.8243H22.2563V26.7817H23.6329V27.3286H22.2563Z" fill="#09090F"/>
</svg>
