<svg width="33" height="32" viewBox="0 0 33 32" fill="none" xmlns="http://www.w3.org/2000/svg">
    <path fill-rule="evenodd" clip-rule="evenodd"
        d="M3.69922 16C3.69922 12.6052 5.04779 9.34945 7.44825 6.94898C9.84872 4.54852 13.1044 3.19995 16.4992 3.19995C19.894 3.19995 23.1497 4.54852 25.5502 6.94898C27.9507 9.34945 29.2992 12.6052 29.2992 16C29.2992 19.3947 27.9507 22.6505 25.5502 25.0509C23.1497 27.4514 19.894 28.8 16.4992 28.8C13.1044 28.8 9.84872 27.4514 7.44825 25.0509C5.04779 22.6505 3.69922 19.3947 3.69922 16ZM13.9232 11.3472C14.1125 11.2435 14.3263 11.1928 14.542 11.2004C14.7576 11.208 14.9673 11.2736 15.1488 11.3904L20.7488 14.9904C20.9179 15.099 21.057 15.2484 21.1534 15.4248C21.2497 15.6012 21.3002 15.799 21.3002 16C21.3002 16.2009 21.2497 16.3987 21.1534 16.5751C21.057 16.7515 20.9179 16.9009 20.7488 17.0096L15.1488 20.6096C14.9675 20.7263 14.7581 20.792 14.5426 20.7998C14.3271 20.8076 14.1135 20.7572 13.9243 20.6539C13.735 20.5506 13.5771 20.3982 13.4671 20.2127C13.3571 20.0273 13.2991 19.8156 13.2992 19.6V12.4C13.2992 12.1846 13.3571 11.9733 13.4669 11.788C13.5767 11.6028 13.7343 11.4505 13.9232 11.3472Z"
        fill="currentColor" />
</svg>