<svg width="10" height="11" viewBox="0 0 10 11" fill="none" xmlns="http://www.w3.org/2000/svg">
<path d="M5.6002 1.29922C5.6002 1.14009 5.53698 0.987476 5.42446 0.874955C5.31194 0.762433 5.15933 0.699219 5.0002 0.699219C4.84107 0.699219 4.68845 0.762433 4.57593 0.874955C4.46341 0.987476 4.4002 1.14009 4.4002 1.29922V4.89922H0.800195C0.641065 4.89922 0.488453 4.96243 0.375931 5.07495C0.263409 5.18748 0.200195 5.34009 0.200195 5.49922C0.200195 5.65835 0.263409 5.81096 0.375931 5.92348C0.488453 6.036 0.641065 6.09922 0.800195 6.09922H4.4002V9.69922C4.4002 9.85835 4.46341 10.011 4.57593 10.1235C4.68845 10.236 4.84107 10.2992 5.0002 10.2992C5.15933 10.2992 5.31194 10.236 5.42446 10.1235C5.53698 10.011 5.6002 9.85835 5.6002 9.69922V6.09922H9.2002C9.35933 6.09922 9.51194 6.036 9.62446 5.92348C9.73698 5.81096 9.8002 5.65835 9.8002 5.49922C9.8002 5.34009 9.73698 5.18748 9.62446 5.07495C9.51194 4.96243 9.35933 4.89922 9.2002 4.89922H5.6002V1.29922Z" fill="black"/>
</svg>
