<svg width="21" height="20" viewBox="0 0 21 20" fill="none" xmlns="http://www.w3.org/2000/svg">
    <path
        d="M8.94522 14.8319C9.09582 14.9324 9.27088 14.9901 9.45171 14.9989C9.63254 15.0077 9.81236 14.9672 9.97199 14.8818C10.1316 14.7964 10.2651 14.6692 10.3581 14.5139C10.4511 14.3586 10.5003 14.1809 10.5002 13.9999V11.2019L15.9452 14.8319C16.0958 14.9324 16.2709 14.9901 16.4517 14.9989C16.6325 15.0077 16.8124 14.9672 16.972 14.8818C17.1316 14.7964 17.2651 14.6692 17.3581 14.5139C17.4511 14.3586 17.5003 14.1809 17.5002 13.9999V5.99991C17.5003 5.81886 17.4511 5.64121 17.3581 5.4859C17.2651 5.33058 17.1316 5.20344 16.972 5.11803C16.8124 5.03262 16.6325 4.99215 16.4517 5.00093C16.2709 5.00972 16.0958 5.06743 15.9452 5.16791L10.5002 8.79791V5.99991C10.5003 5.81886 10.4511 5.64121 10.3581 5.4859C10.2651 5.33058 10.1316 5.20344 9.97199 5.11803C9.81236 5.03262 9.63254 4.99215 9.45171 5.00093C9.27088 5.00972 9.09582 5.06743 8.94522 5.16791L2.94522 9.16791C2.80827 9.25923 2.69597 9.38295 2.6183 9.52809C2.54064 9.67323 2.5 9.83529 2.5 9.99991C2.5 10.1645 2.54064 10.3266 2.6183 10.4717C2.69597 10.6169 2.80827 10.7406 2.94522 10.8319L8.94522 14.8319Z"
        fill="currentColor" />
</svg>