<svg width="20" height="21" viewBox="0 0 20 21" fill="none" xmlns="http://www.w3.org/2000/svg">
<path fill-rule="evenodd" clip-rule="evenodd" d="M15.3118 11.9237C15.0619 12.8562 14.571 13.7064 13.8884 14.389C13.2058 15.0717 12.3555 15.5626 11.4231 15.8125C10.4906 16.0624 9.50883 16.0625 8.57634 15.8127C7.64385 15.563 6.79352 15.0722 6.1108 14.3897L5.7988 14.0787H8.2318C8.43071 14.0787 8.62147 13.9997 8.76213 13.859C8.90278 13.7184 8.9818 13.5276 8.9818 13.3287C8.9818 13.1298 8.90278 12.939 8.76213 12.7984C8.62147 12.6577 8.43071 12.5787 8.2318 12.5787H3.9888C3.78988 12.5787 3.59912 12.6577 3.45847 12.7984C3.31781 12.939 3.2388 13.1298 3.2388 13.3287V17.5707C3.2388 17.7696 3.31781 17.9604 3.45847 18.101C3.59912 18.2417 3.78988 18.3207 3.9888 18.3207C4.18771 18.3207 4.37847 18.2417 4.51913 18.101C4.65978 17.9604 4.7388 17.7696 4.7388 17.5707V15.1407L5.0488 15.4507C5.91764 16.3198 6.99996 16.9448 8.18694 17.2629C9.37393 17.5811 10.6238 17.5811 11.8108 17.2631C12.9978 16.9451 14.0802 16.3201 14.9491 15.4511C15.818 14.5822 16.4428 13.4997 16.7608 12.3127C16.8125 12.1206 16.7858 11.9157 16.6865 11.7433C16.5872 11.5709 16.4234 11.4449 16.2313 11.3932C16.0391 11.3415 15.8343 11.3682 15.6619 11.4675C15.4894 11.5668 15.3635 11.7316 15.3118 11.9237ZM16.5418 8.20071C16.6821 8.06003 16.7609 7.86941 16.7608 7.67071V3.42871C16.7608 3.2298 16.6818 3.03903 16.5411 2.89838C16.4005 2.75773 16.2097 2.67871 16.0108 2.67871C15.8119 2.67871 15.6211 2.75773 15.4805 2.89838C15.3398 3.03903 15.2608 3.2298 15.2608 3.42871V5.85971L14.9508 5.54971C14.082 4.68065 12.9996 4.05564 11.8126 3.73749C10.6257 3.41935 9.37584 3.4193 8.18882 3.73733C7.00181 4.05537 5.91944 4.68029 5.05051 5.54927C4.18159 6.41826 3.55675 7.50067 3.2388 8.68771C3.2099 8.78382 3.20058 8.88476 3.2114 8.98453C3.22222 9.08431 3.25296 9.1809 3.30179 9.26858C3.35062 9.35626 3.41655 9.43325 3.49568 9.49499C3.57481 9.55672 3.66552 9.60195 3.76245 9.62799C3.85937 9.65403 3.96054 9.66035 4.05995 9.64658C4.15936 9.6328 4.255 9.59922 4.34119 9.54781C4.42739 9.49641 4.50239 9.42822 4.56176 9.3473C4.62112 9.26638 4.66364 9.17436 4.6868 9.07671C4.93637 8.14379 5.42718 7.29302 6.10988 6.60997C6.79258 5.92692 7.64309 5.43567 8.57589 5.18562C9.50869 4.93557 10.4909 4.93553 11.4237 5.18552C12.3565 5.43551 13.2071 5.92671 13.8898 6.60971L14.2008 6.91971H11.7688C11.5699 6.91971 11.3791 6.99873 11.2385 7.13938C11.0978 7.28003 11.0188 7.4708 11.0188 7.66971C11.0188 7.86862 11.0978 8.05939 11.2385 8.20004C11.3791 8.34069 11.5699 8.41971 11.7688 8.41971H16.0118C16.2105 8.4198 16.4011 8.34104 16.5418 8.20071Z" fill="white"/>
</svg>
