<svg width="16" height="16" viewBox="0 0 16 16" fill="none" xmlns="http://www.w3.org/2000/svg">
	<path d="M8.57666 1.99748C8.31974 1.55471 7.68034 1.55471 7.42342 1.99748L5.61405 5.11569C5.48713 5.33441 5.26777 5.48367 5.01772 5.52144L1.62685 6.03359C1.05733 6.11961 0.857554 6.83868 1.30109 7.20614L3.82715 9.29896C4.06098 9.49268 4.17093 9.79826 4.11413 10.0966L3.45335 13.5666C3.34889 14.1152 3.92475 14.5414 4.41885 14.2812L7.61179 12.6C7.85481 12.4721 8.14527 12.4721 8.38829 12.6L11.5812 14.2812C12.0753 14.5414 12.6512 14.1152 12.5467 13.5666L11.886 10.0966C11.8292 9.79826 11.9391 9.49268 12.1729 9.29896L14.699 7.20614C15.1425 6.83868 14.9428 6.11961 14.3732 6.03359L10.9824 5.52144C10.7323 5.48367 10.5129 5.33441 10.386 5.11569L8.57666 1.99748Z" fill="#FFDF1B">
	</path>
</svg>