<svg width="30" height="30" viewBox="0 0 30 30" fill="none" xmlns="http://www.w3.org/2000/svg">
    <path d="M15.75 19.5C19.8921 19.5 23.25 16.1421 23.25 12C23.25 7.85786 19.8921 4.5 15.75 4.5C11.6079 4.5 8.25 7.85786 8.25 12C8.25 16.1421 11.6079 19.5 15.75 19.5Z" fill="white" />
    <mask id="mask0_4353_1362" style="mask-type:luminance" maskUnits="userSpaceOnUse" x="3" y="0" width="25" height="30">
        <path d="M27.1893 0H3.75V30H27.1893V0Z" fill="white" />
    </mask>
    <g mask="url(#mask0_4353_1362)">
        <path
            d="M15.5302 29.9964C15.5104 29.9964 15.4905 29.9964 15.4707 29.9964C15.4284 29.8647 15.3066 29.805 15.2146 29.718C13.1148 27.7649 11.1541 25.6773 9.3648 23.4357C7.64014 21.2813 6.08697 19.0147 4.97116 16.4725C4.03926 14.3503 3.61678 12.1609 4.00198 9.84231C4.9314 4.2285 9.80964 0.0933054 15.5328 0.0908203C15.5328 1.56448 15.5328 3.03813 15.5328 4.51179C15.1873 4.5267 14.8419 4.53416 14.4965 4.58138C9.73756 5.2275 6.88219 10.3642 8.91748 14.728C10.2122 17.5014 12.4712 18.9054 15.5328 19.0023C15.5328 22.6504 15.5328 26.296 15.5328 29.9442C15.5278 29.9616 15.5278 29.979 15.5302 29.9964Z"
            fill="#15CD70" />
        <path
            d="M15.5332 4.50926C15.5332 3.0356 15.5332 1.56193 15.5332 0.0882784C17.0938 0.075853 18.6022 0.361638 20.0238 0.997821C23.8956 2.72993 26.2389 5.6847 27.0193 9.8696C27.0838 10.2125 27.0615 10.5679 27.1858 10.8984C27.1858 11.0376 27.1858 11.1768 27.1858 11.3159C27.0864 11.5943 27.0888 11.8701 27.1858 12.1484C27.1858 12.2677 27.1858 12.387 27.1858 12.5063C27.1236 12.5237 27.1287 12.5758 27.1262 12.6256C27.0939 13.0604 27.0119 13.4854 26.9124 13.9079C26.4353 15.9606 25.5059 17.8145 24.405 19.5888C22.5114 22.6404 20.1877 25.3493 17.6827 27.9039C16.992 28.6097 16.3011 29.3203 15.5332 29.9442C15.5332 26.296 15.5332 22.6504 15.5332 19.0023C15.9382 18.9849 16.3408 18.9527 16.7409 18.8831C20.563 18.222 23.1798 14.6857 22.6753 10.8363C22.3846 8.61711 21.2763 6.89742 19.4199 5.6673C18.2469 4.88947 16.9372 4.53411 15.5332 4.50926Z"
            fill="#15CD70" />
        <path d="M27.1849 12.1499C27.088 11.8716 27.0855 11.5957 27.1849 11.3174C27.1849 11.5932 27.1849 11.8716 27.1849 12.1499Z" fill="#47484F" />
    </g>
</svg>