<svg width="16" height="16" viewBox="0 0 16 16" fill="none" xmlns="http://www.w3.org/2000/svg">
<path d="M1.66672 7.33474V5.33468C1.85073 5.33468 2.00008 5.18533 2.00008 5.00132C2.00008 4.81732 1.85073 4.66797 1.66672 4.66797C0.747374 4.66797 0 5.41599 0 6.33471V7.00138C0 7.55275 0.448674 8.00142 1.00004 8.00142H1.66672C1.85073 8.00142 2.00008 7.85207 2.00008 7.66806C2.00008 7.48406 1.85073 7.33474 1.66672 7.33474Z" fill="#444854"/>
<path d="M14.3334 4.66797C14.1493 4.66797 14 4.81732 14 5.00132C14 5.18533 14.1493 5.33468 14.3334 5.33468V7.33474C14.1493 7.33474 14 7.48409 14 7.66809C14 7.8521 14.1493 8.00142 14.3334 8.00142H15C15.5514 8.00142 16.0001 7.55275 16.0001 7.00138V6.33471C16.0001 5.41599 15.2527 4.66797 14.3334 4.66797Z" fill="#444854"/>
<path d="M5.66811 14C5.4841 14 5.33475 14.1493 5.33475 14.3334H3.33468C3.33468 14.1493 3.18533 14 3.00132 14C2.81732 14 2.66797 14.1493 2.66797 14.3334V15C2.66797 15.5514 3.11664 16.0001 3.66801 16.0001H5.00143C5.55279 16.0001 6.00146 15.5514 6.00146 15V14.3334C6.00146 14.1493 5.85212 14 5.66811 14Z" fill="#444854"/>
<path d="M13.0001 14C12.8161 14 12.6668 14.1493 12.6668 14.3334H10.6667C10.6667 14.1493 10.5173 14 10.3333 14C10.1493 14 10 14.1493 10 14.3334V15C10 15.5514 10.4487 16.0001 11 16.0001H12.3335C12.8848 16.0001 13.3335 15.5514 13.3335 15V14.3334C13.3335 14.1493 13.1841 14 13.0001 14Z" fill="#444854"/>
<path fill-rule="evenodd" clip-rule="evenodd" d="M12.9991 0H2.99874C2.07937 0 1.33203 0.748025 1.33203 1.66671V13.0004C1.33203 13.9191 2.0794 14.6671 2.99874 14.6671H12.9991C13.9184 14.6671 14.6658 13.9191 14.6658 13.0004V1.66671C14.6658 0.748025 13.9184 0 12.9991 0ZM4.33207 1.33301H11.6657C12.217 1.33301 12.6657 1.78168 12.6657 2.33304C12.6657 2.88439 12.217 3.33306 11.6657 3.33306H4.33207C3.7807 3.33306 3.33203 2.88439 3.33203 2.33304C3.33203 1.78168 3.7807 1.33301 4.33207 1.33301ZM3.33203 11.667C3.33203 12.2184 3.78069 12.667 4.33203 12.667C4.88334 12.667 5.33203 12.2184 5.33203 11.667C5.33203 11.1157 4.88337 10.667 4.33203 10.667C3.78069 10.667 3.33203 11.1157 3.33203 11.667ZM11.6655 12.667C11.1142 12.667 10.6655 12.2184 10.6655 11.667C10.6655 11.1157 11.1142 10.667 11.6655 10.667C12.2169 10.667 12.6655 11.1157 12.6655 11.667C12.6655 12.2184 12.2169 12.667 11.6655 12.667ZM12.3326 9.33449C12.8839 9.33449 13.3326 8.88582 13.3326 8.33446H13.3326V5.00101C13.3326 4.44965 12.8839 4.00098 12.3325 4.00098H3.66556C3.1142 4.00098 2.66553 4.44965 2.66553 5.00101V8.33446C2.66553 8.88582 3.1142 9.33449 3.66556 9.33449H12.3326Z" fill="#444854"/>
</svg>
