<svg width="90" height="90" viewBox="0 0 90 90" fill="none" xmlns="http://www.w3.org/2000/svg">
    <g clip-path="url(#clip0_1690_35559)">
        <path
            d="M55.7851 10.0219C54.7013 8.11727 53.1325 6.53361 51.2381 5.43197C49.3438 4.33033 47.1915 3.75 45.0001 3.75C42.8087 3.75 40.6564 4.33033 38.762 5.43197C36.8677 6.53361 35.2988 8.11727 34.2151 10.0219L1.55258 68.2144C0.515392 70.0406 -0.0208017 72.1084 -0.0017044 74.2084C0.017393 76.3085 0.591103 78.3662 1.66133 80.1732C2.74727 82.0374 4.30667 83.5815 6.18155 84.649C8.05643 85.7165 10.1802 86.2695 12.3376 86.2519H77.6626C79.82 86.2695 81.9437 85.7165 83.8186 84.649C85.6935 83.5815 87.2529 82.0374 88.3388 80.1732C89.409 78.3662 89.9828 76.3085 90.0019 74.2084C90.021 72.1084 89.4848 70.0406 88.4476 68.2144L55.7851 10.0219ZM45.0001 71.2519C44.2584 71.2519 43.5334 71.032 42.9167 70.6199C42.3 70.2079 41.8194 69.6222 41.5355 68.937C41.2517 68.2517 41.1774 67.4977 41.3221 66.7703C41.4668 66.0429 41.824 65.3747 42.3484 64.8503C42.8729 64.3258 43.5411 63.9687 44.2685 63.824C44.9959 63.6793 45.7499 63.7535 46.4351 64.0374C47.1204 64.3212 47.706 64.8018 48.1181 65.4185C48.5301 66.0352 48.7501 66.7602 48.7501 67.5019C48.7501 68.4965 48.355 69.4503 47.6517 70.1536C46.9485 70.8568 45.9946 71.2519 45.0001 71.2519ZM48.7501 52.5019C48.7501 53.4965 48.355 54.4503 47.6517 55.1536C46.9485 55.8568 45.9946 56.2519 45.0001 56.2519C44.0055 56.2519 43.0517 55.8568 42.3484 55.1536C41.6452 54.4503 41.2501 53.4965 41.2501 52.5019V30.0019C41.2501 29.0073 41.6452 28.0535 42.3484 27.3503C43.0517 26.647 44.0055 26.2519 45.0001 26.2519C45.9946 26.2519 46.9485 26.647 47.6517 27.3503C48.355 28.0535 48.7501 29.0073 48.7501 30.0019V52.5019Z"
            fill="#E13D45" />
    </g>
    <defs>
        <clipPath id="clip0_1690_35559">
            <rect width="90" height="90" fill="white" />
        </clipPath>
    </defs>
</svg>