<svg width="144" height="27" viewBox="0 0 144 27" fill="none" xmlns="http://www.w3.org/2000/svg">
    <path
        d="M144 17.684C143.964 18.945 143.531 20.1625 142.764 21.1633C141.948 22.0364 140.304 22.6163 138.252 22.6163C136.805 22.6179 135.386 22.2163 134.154 21.4565C133.674 21.1518 133.257 20.7582 132.925 20.2967C132.51 19.4237 132.103 18.8438 132.103 17.9772L135.792 17.1042C135.814 17.3919 135.899 17.6712 136.041 17.9224C136.183 18.1735 136.379 18.3902 136.614 18.5571C137.022 19.137 137.436 19.1369 138.252 19.1369C139.482 19.1369 139.896 18.557 139.896 17.9772C139.898 17.8182 139.867 17.6606 139.805 17.5142C139.743 17.3678 139.652 17.236 139.536 17.1269C139.42 17.0179 139.283 16.934 139.134 16.8807C138.984 16.8275 138.825 16.8059 138.666 16.8174L136.614 16.2375C133.74 15.6513 132.51 14.2047 132.51 11.8852C132.517 11.221 132.668 10.5662 132.952 9.96565C133.236 9.36511 133.646 8.83301 134.154 8.40586C134.97 7.53284 136.614 6.95298 138.252 6.95298C139.101 6.97668 139.937 7.16855 140.711 7.51748C141.486 7.86641 142.183 8.36546 142.764 8.98576C143.432 9.59194 143.87 10.412 144 11.3053L140.304 12.1719C139.896 11.0122 139.482 10.4323 138.252 10.4323C137.022 10.4323 136.614 11.0122 136.614 11.592C136.614 12.1719 137.022 12.4651 137.436 12.7518L139.482 13.045C142.764 13.6248 144 15.3645 144 17.684Z"
        fill="#000005" />
    <path d="M131.281 7.54541V11.8977C129.643 11.6046 126.769 12.7644 126.769 15.6638V22.3357H122.666V7.54541H126.769V9.57819C127.61 7.82579 129.643 7.54541 131.281 7.54541Z" fill="#000005" />
    <path
        d="M121.028 14.7847C121.024 13.8228 120.829 12.8714 120.455 11.9853C120.08 11.0993 119.534 10.2964 118.847 9.62313C118.16 8.94983 117.346 8.4195 116.453 8.0629C115.559 7.7063 114.604 7.53051 113.643 7.54569C109.131 7.54569 105.849 10.7319 105.849 14.7974C105.849 19.1498 109.131 22.336 114.057 22.336C116.516 22.336 118.976 21.4693 120.206 19.4365L116.924 17.4101C116.567 17.8099 116.123 18.1224 115.625 18.3234C115.128 18.5245 114.592 18.6088 114.057 18.5699C112.413 18.5699 111.183 17.99 110.775 16.5371H120.601C120.968 16.0317 121.122 15.4022 121.028 14.7847ZM110.361 13.3318C110.775 11.8853 112.005 11.3054 113.643 11.3054C114.281 11.2635 114.915 11.4418 115.438 11.8106C115.961 12.1793 116.341 12.7163 116.516 13.3318H110.361Z"
        fill="#000005" />
    <path d="M104.619 5.21333H100.107V22.3231H104.619V5.21333Z" fill="#000005" />
    <path
        d="M95.1877 11.8852V17.1042C95.1877 18.264 96.4176 18.5571 98.4695 18.264V22.3232C92.3138 22.903 90.6761 21.1634 90.6761 17.1042V11.8852H88.21V7.54564H89.854C89.9664 7.54769 90.0779 7.52633 90.1816 7.4829C90.2852 7.43948 90.3787 7.37494 90.456 7.29341C90.5333 7.21189 90.5928 7.11516 90.6307 7.00937C90.6686 6.90359 90.684 6.79109 90.6761 6.67901V5.22609H95.1877V7.54564H98.4695V11.898L95.1877 11.8852Z"
        fill="#000005" />
    <path
        d="M87.8023 18.264V22.3232C82.0672 22.903 80.4168 21.1634 80.4168 17.1042V11.8852H77.957V7.54564H79.6011C79.7129 7.5468 79.8238 7.52478 79.9266 7.48096C80.0295 7.43714 80.1222 7.37247 80.1988 7.29104C80.2755 7.20961 80.3344 7.1132 80.3719 7.00786C80.4094 6.90251 80.4247 6.79055 80.4168 6.67901V5.22609H84.9157V7.54564H87.3754V11.898H84.9157V17.1042C84.9157 18.264 86.1901 18.5571 87.8023 18.264Z"
        fill="#000005" />
    <path
        d="M76.727 7.54541V22.3357H72.2154V20.8891C71.6749 21.5545 70.9855 22.0834 70.2029 22.4332C69.4203 22.783 68.5664 22.9438 67.7101 22.9028C64.8426 22.9028 62.3765 20.5833 62.3765 16.8172V7.54541H66.8881V15.9569C66.8881 17.9897 68.118 18.8564 69.3542 18.8564C70.9919 18.8564 72.2218 17.6966 72.2218 15.6702V7.54541H76.727Z"
        fill="#000005" />
    <path
        d="M60.7327 13.6247V22.323H56.2402V14.2047C56.265 13.8681 56.2195 13.5302 56.1067 13.2122C55.9939 12.8942 55.8162 12.6031 55.5849 12.3574C55.3536 12.1117 55.0738 11.9168 54.7631 11.785C54.4525 11.6533 54.1179 11.5875 53.7805 11.592C52.1364 11.592 50.9065 12.465 50.9065 14.4914V22.323H46.8027V4.63335H50.9065V8.98568C51.4467 8.47792 52.0864 8.08776 52.7851 7.83987C53.4838 7.59198 54.2263 7.49175 54.9657 7.54552C58.273 7.54552 60.7327 9.56555 60.7327 13.6247Z"
        fill="#000005" />
    <path
        d="M45.1459 16.8172C45.1459 18.2637 44.7317 19.7166 43.5018 20.5833C42.6861 21.743 41.0421 22.3229 38.5823 22.3229C37.1333 22.3244 35.7124 21.9228 34.4785 21.1631C33.7858 20.8783 33.209 20.3688 32.8408 19.7166C32.5493 19.4089 32.3256 19.0435 32.184 18.6439C32.0424 18.2444 31.9861 17.8197 32.0188 17.3971L36.1226 16.5241C36.1226 17.104 36.5304 17.3971 36.9382 17.9769C37.3461 18.5568 37.7603 18.5569 38.5823 18.5569C39.8122 18.5569 40.6342 17.977 40.6342 17.1039C40.6342 16.5241 40.22 15.9442 38.9901 15.9442L36.9382 15.3643C33.6629 14.7844 32.4266 13.0448 32.4266 10.4321C32.4019 9.7214 32.5368 9.01422 32.8213 8.36251C33.1058 7.71079 33.5327 7.13107 34.0707 6.666C35.3627 5.67724 36.9561 5.16414 38.5823 5.21312C41.0421 5.21312 43.094 6.0861 43.916 7.53263C44.7317 8.40564 45.1459 8.98554 45.1459 9.85218L41.0421 10.7316C40.6342 9.5718 39.8122 8.69878 38.5823 8.69878C37.3525 8.69878 36.5304 9.57182 36.5304 10.1517C36.5304 10.7316 36.9382 11.3114 38.1745 11.3114L40.22 11.8913C43.4954 12.4649 45.1459 14.4913 45.1459 16.8172Z"
        fill="#000005" />
    <path
        d="M24.2255 5.21961C22.9621 3.59181 21.3426 2.27508 19.4913 1.3704C17.6399 0.465722 15.606 -0.0028727 13.5454 0.000639696C10.5535 -0.0293711 7.64697 0.997424 5.3378 2.9001C3.71097 4.18346 2.38885 5.81147 1.46659 7.66701C0.544333 9.52255 0.044863 11.5594 0.00412824 13.6311C-0.0736564 16.5994 0.950105 19.4913 2.87806 21.7495C7.3897 27.5484 16.0051 28.7082 21.7466 24.0691C23.3656 22.8444 24.6865 21.2693 25.6102 19.4616C26.5339 17.6539 27.0365 15.6607 27.0803 13.6311C27.0994 10.7317 25.8696 7.83228 24.2255 5.21961ZM20.9437 14.7782C20.9437 15.9379 20.1217 16.811 19.306 17.6776L11.5126 23.1897L11.0984 18.8374L16.4321 15.3581C16.4321 15.3581 16.8399 15.3581 16.8399 15.0649C17.2541 14.7782 17.2541 14.485 17.2541 13.9052C17.0793 13.7661 16.8626 13.6904 16.6392 13.6904C16.4158 13.6904 16.1991 13.7661 16.0243 13.9052C15.6101 13.9052 15.6101 14.1983 15.6101 14.1983L12.7425 16.5178H12.3283C11.9205 16.811 11.5126 16.811 11.0984 17.0977C10.2594 17.242 9.39697 17.1565 8.60265 16.8502C7.80832 16.5439 7.11173 16.0283 6.58678 15.3581C6.03798 14.3907 5.8915 13.2463 6.17895 12.1719C6.22364 11.6398 6.39506 11.1261 6.67886 10.6738C6.96266 10.2215 7.35061 9.84367 7.81028 9.57195L15.6037 3.77311L16.0179 8.11907L10.6842 11.8915H10.2764C10.1208 12.0385 10.0022 12.2201 9.93018 12.4217C9.85819 12.6233 9.83489 12.839 9.86218 13.0513C10.2764 13.6312 10.6842 13.6312 11.092 13.338C11.092 13.0513 11.5063 13.0513 11.5063 12.7581L14.3738 10.7317L14.788 10.4386C15.1959 10.4386 15.6037 10.1519 16.0179 10.1519C16.7599 9.85336 17.5854 9.83557 18.3396 10.1018C19.0938 10.3681 19.7251 10.9001 20.1153 11.5984C20.9437 12.7581 21.3579 13.9179 20.9437 14.7909V14.7782Z"
        fill="#20E682" />
    <path
        d="M20.9434 14.7908C20.9434 15.9506 20.1214 16.8236 19.3057 17.6902L11.5123 23.2024L11.0981 18.85L16.4318 15.3707C16.4318 15.3707 16.8396 15.3707 16.8396 15.0776C17.2538 14.7908 17.2538 14.4977 17.2538 13.9178C17.079 13.7788 16.8623 13.703 16.6389 13.703C16.4155 13.703 16.1988 13.7788 16.024 13.9178C15.6098 13.9178 15.6098 14.211 15.6098 14.211L12.7422 16.5305H12.328C11.9202 16.8236 11.5123 16.8236 11.0981 17.1104C10.2591 17.2547 9.39667 17.1691 8.60235 16.8629C7.80802 16.5566 7.11143 16.041 6.58648 15.3707C6.03768 14.4033 5.8912 13.259 6.17865 12.1845C6.22137 11.6502 6.39186 11.134 6.67575 10.6793C6.95965 10.2246 7.34864 9.8448 7.80998 9.57185L15.6034 3.77301L16.0176 8.11897L10.6839 11.8914H10.2761C10.1205 12.0384 10.0019 12.22 9.92988 12.4216C9.85789 12.6232 9.83459 12.8389 9.86188 13.0512C10.2761 13.6311 10.6839 13.6311 11.0917 13.3379C11.0917 13.0512 11.506 13.0512 11.506 12.758L14.3735 10.7316L14.7877 10.4385C15.1955 10.4385 15.6034 10.1518 16.0176 10.1518C16.7596 9.85327 17.5851 9.83548 18.3393 10.1017C19.0935 10.368 19.7248 10.9 20.115 11.5983C20.9434 12.758 21.3576 13.9178 20.9434 14.7908Z"
        fill="#000005" />
</svg>